<svg width="371" height="417" viewBox="0 0 371 417" xmlns="http://www.w3.org/2000/svg"><path d="M175.616 3.278a20.001 20.001 0 0119.848 0l164.634 94.088a20 20 0 0110.076 17.364v187.825a20 20 0 01-10.076 17.364l-164.634 94.088a20.002 20.002 0 01-19.848 0L10.983 319.919A20 20 0 01.906 302.555V114.73a20 20 0 0110.077-17.364L175.616 3.278z" fill="#51FEDD"/><path d="M176.149 73.514a20.001 20.001 0 0119.381 0l130.549 72.307a19.999 19.999 0 0110.31 17.495v143.196a20 20 0 01-10.31 17.496L195.53 396.314a20.001 20.001 0 01-19.381 0l-130.55-72.306a20 20 0 01-10.309-17.496V163.316a19.999 19.999 0 0110.31-17.495l130.549-72.307z" fill="#0369C7"/></svg>