<svg width="69" height="69" viewBox="0 0 69 69" fill="none" xmlns="http://www.w3.org/2000/svg"><g clip-path="url(#clip0)" fill="#00AFC1"><path d="M10.894 8.797h-.006c-.643 0-1.248.251-1.705.707a2.423 2.423 0 00-.716 1.727v36.487a2.442 2.442 0 002.436 2.433c5.664.014 15.154 1.194 21.7 8.045V20.01c0-.453-.116-.88-.334-1.232-5.373-8.653-15.698-9.967-21.375-9.98zm49.62 38.921V11.23c0-.653-.255-1.266-.717-1.727a2.399 2.399 0 00-1.704-.706h-.006c-5.677.014-16.002 1.328-21.375 9.981a2.332 2.332 0 00-.334 1.232v38.185c6.546-6.85 16.036-8.03 21.7-8.044a2.441 2.441 0 002.436-2.433z"/><path d="M66.056 17.212h-1.764v30.506c0 3.417-2.784 6.202-6.205 6.211-4.804.011-12.726.95-18.336 6.26 9.703-2.375 19.931-.83 25.76.498a2.428 2.428 0 002.064-.47 2.42 2.42 0 00.914-1.901V19.645a2.436 2.436 0 00-2.433-2.433zM4.687 47.718V17.212H2.923A2.436 2.436 0 00.49 19.645v38.67c0 .744.334 1.437.915 1.9a2.426 2.426 0 002.063.47c5.83-1.328 16.058-2.872 25.76-.496-5.61-5.31-13.531-6.249-18.336-6.26-3.42-.009-6.205-2.794-6.205-6.21z"/></g><defs><clipPath id="clip0"><path fill="#fff" transform="translate(.49 .772)" d="M0 0h68v68H0z"/></clipPath></defs></svg>