<svg width="69" height="69" viewBox="0 0 69 69" fill="none" xmlns="http://www.w3.org/2000/svg"><path d="M56.803 47.522a9.518 9.518 0 00-5.964 2.095l-6.617-6.616a12.692 12.692 0 002.99-7.636l13.008-.487a3.2 3.2 0 10-.069-2.125l-13.011.481a12.737 12.737 0 00-5.596-9.086l3.068-5.58a5.334 5.334 0 10-1.861-1.023l-3.07 5.583a12.703 12.703 0 00-13.42 1.913l-6.615-6.618a9.575 9.575 0 10-1.503 1.503l6.616 6.617a12.691 12.691 0 00-3.018 8.229c.003.763.074 1.524.212 2.275l-11.408 3.072a4.221 4.221 0 10.57 2.09v-.042l11.4-3.069a12.768 12.768 0 005.353 6.552l-3.2 6.4a6.41 6.41 0 101.898.956l3.2-6.4a12.706 12.706 0 0012.962-2.103l6.617 6.617a9.562 9.562 0 107.458-3.598zm-39.312-29.75H6.866a5.312 5.312 0 015.312-5.312 3.188 3.188 0 110-6.376 3.188 3.188 0 010 6.376 5.313 5.313 0 015.313 5.312zm17 8.5a4.25 4.25 0 110 8.5 4.25 4.25 0 010-8.5zM28.116 42.21a6.375 6.375 0 1112.75 0h-12.75zM51.49 62.397a5.313 5.313 0 015.312-5.313 3.187 3.187 0 110-6.374 3.187 3.187 0 010 6.374 5.312 5.312 0 015.313 5.313H51.49z" fill="#4E65E1"/></svg>