<svg width="675" height="779" viewBox="0 0 675 779" fill="none" xmlns="http://www.w3.org/2000/svg"><path d="M334.366 24.656a20.002 20.002 0 0119.999 0l310.287 179.122a20 20 0 0110.001 17.321V579.34a20 20 0 01-10.001 17.321L354.365 775.783a20 20 0 01-19.998 0L24.079 596.661a20 20 0 01-10.001-17.321V221.099a20.001 20.001 0 0110-17.321L334.367 24.656z" fill="#51FEDD"/><path d="M321.109 3.601a20 20 0 0119.998 0l310.287 179.123a19.998 19.998 0 0110.001 17.321v358.24a19.998 19.998 0 01-10.001 17.321L341.107 754.729a20.004 20.004 0 01-19.998 0L10.821 575.606a19.999 19.999 0 01-10-17.321v-358.24a19.999 19.999 0 0110-17.321L321.11 3.601z" fill="#0369C7"/></svg>