<svg width="776" height="899" viewBox="0 0 776 899" fill="none" xmlns="http://www.w3.org/2000/svg"><path d="M377.907 23.068a20.001 20.001 0 0119.848 0l366.966 209.721a19.999 19.999 0 0110.076 17.364v419.09a19.999 19.999 0 01-10.076 17.364L397.755 896.328a19.997 19.997 0 01-19.848 0L10.941 686.607A20 20 0 01.865 669.243v-419.09a20 20 0 0110.076-17.364L377.907 23.068z" fill="#51FEDD"/><path d="M387.97 3.308a20 20 0 0119.998 0l357.446 206.346a20 20 0 0110.001 17.321v412.687a20.001 20.001 0 01-10.001 17.321L407.968 863.329a20 20 0 01-19.998 0L30.524 656.983a20 20 0 01-10.001-17.321V226.975a19.999 19.999 0 0110-17.321L387.97 3.308z" fill="#fff"/></svg>