<svg width="734" height="829" viewBox="0 0 734 829" fill="none" xmlns="http://www.w3.org/2000/svg"><path d="M346.878 20.638a20 20 0 0119.87 0l336.641 192.681a20 20 0 0110.065 17.358V615.74a20 20 0 01-10.065 17.358L366.748 825.779a20 20 0 01-19.87 0L10.238 633.098A20 20 0 01.173 615.74V230.677a20 20 0 0110.065-17.358l336.64-192.681z" fill="#51FEDD"/><path d="M369.693 3.535a20 20 0 0119.998 0l333.605 192.583a19.998 19.998 0 0110.001 17.321v385.162a20 20 0 01-10.001 17.321L389.691 808.505a20 20 0 01-19.998 0L36.088 615.922a20.001 20.001 0 01-10.001-17.321V213.439a19.999 19.999 0 0110-17.321L369.694 3.535z" fill="#EBF5FF"/></svg>