<svg width="776" height="899" viewBox="0 0 776 899" fill="none" xmlns="http://www.w3.org/2000/svg"><path d="M377.907 23.068a20.001 20.001 0 0119.848 0l366.966 209.721a19.999 19.999 0 0110.076 17.364v419.09a19.999 19.999 0 01-10.076 17.364L397.755 896.328a19.997 19.997 0 01-19.848 0L10.941 686.607A20 20 0 01.865 669.243v-419.09a20 20 0 0110.076-17.364L377.907 23.068z" fill="#51FEDD"/><path d="M387.97 3.308a20 20 0 0119.998 0l357.446 206.346a20 20 0 0110.001 17.321v412.687a20.001 20.001 0 01-10.001 17.321L407.968 863.329a20 20 0 01-19.998 0L30.524 656.983a20 20 0 01-10.001-17.321V226.975a19.999 19.999 0 0110-17.321L387.97 3.308z" fill="#fff"/><path d="M399.189 718.022c26.857 0 48.629-6.151 48.629-13.739 0-7.588-21.772-13.739-48.629-13.739-26.856 0-48.628 6.151-48.628 13.739 0 7.588 21.772 13.739 48.628 13.739zm-161.126-23.189c62.13 0 112.497-6.151 112.497-13.739 0-7.588-50.367-13.739-112.497-13.739-62.131 0-112.497 6.151-112.497 13.739 0 7.588 50.366 13.739 112.497 13.739zm290.972 0c32.16 0 58.231-6.151 58.231-13.739 0-7.588-26.071-13.739-58.231-13.739s-58.23 6.151-58.23 13.739c0 7.588 26.07 13.739 58.23 13.739z" fill="#62BDF3"/><path d="M326.811 279.97c-.109 0-.182-.037-.255-.146a.344.344 0 01.073-.472c.036-.037 4.292-3.235 10.148-.4.145.073.218.291.145.436-.073.145-.291.218-.436.145-5.492-2.653-9.275.182-9.457.328-.073.109-.145.109-.218.109z" fill="#3797DB"/><path d="M419.449 620.031c-120.389-62.88-161.453-128.014-174.51-172.284h77.326a45.25 45.25 0 01-6.002 19.772 18.315 18.315 0 00-2.618 9.45c0 10.105 8.22 18.319 18.331 18.319 10.111 0 18.331-8.214 18.331-18.319 0-3.343-.909-6.615-2.655-9.486-3.492-5.997-5.528-12.794-5.965-19.736h77.762v72.003l1.419-.146c6.911-.618 13.712-2.762 19.713-6.251 2.474-1.491 5.274-2.29 8.148-2.29 8.656 0 15.712 7.051 15.712 15.702 0 8.65-7.056 15.702-15.712 15.702-2.874 0-5.674-.8-8.148-2.254-6.001-3.489-12.839-5.634-19.713-6.252l-1.419-.109v86.179z" fill="#3B77BE"/><path d="M422.069 536.761a44.818 44.818 0 0117.203 5.743 18.346 18.346 0 009.457 2.617c10.111 0 18.331-8.215 18.331-18.319 0-10.105-8.22-18.319-18.331-18.319-3.346 0-6.62.909-9.493 2.653a44.45 44.45 0 01-17.167 5.743v-69.132h91.583l.037-1.272a47.864 47.864 0 00-6.402-25.515c-1.491-2.472-2.291-5.271-2.291-8.142 0-8.651 7.056-15.702 15.712-15.702 8.657 0 15.713 7.051 15.713 15.702 0 2.871-.8 5.67-2.255 8.142-4.51 7.778-6.729 16.574-6.438 25.515l.036 1.272h68.815c-13.057 44.234-54.12 109.404-174.51 172.285v-83.271z" fill="#62BDF3"/><path d="M421.741 620.576v-84.179l.363.036a45.193 45.193 0 0117.313 5.779c2.801 1.709 6.001 2.581 9.311 2.581 9.93 0 18.004-8.069 18.004-17.992s-8.074-17.992-18.004-17.992c-3.31 0-6.51.909-9.311 2.581-5.346 3.09-11.166 5.052-17.313 5.779l-.363.037V447.42h91.583l.037-.945a47.298 47.298 0 00-6.365-25.334 15.97 15.97 0 01-2.328-8.324c0-8.832 7.201-16.029 16.04-16.029 8.838 0 16.039 7.197 16.039 16.029 0 2.944-.8 5.816-2.327 8.287a47.293 47.293 0 00-6.365 25.334l.036.945h68.924l-.109.436c-12.948 43.835-53.757 109.332-174.693 172.466l-.472.291zm.654-83.452v82.362c119.954-62.771 160.726-127.76 173.747-171.412h-68.669l-.037-1.599a47.91 47.91 0 016.474-25.698 15.367 15.367 0 002.219-7.96c0-8.469-6.911-15.374-15.385-15.374-8.475 0-15.385 6.905-15.385 15.374 0 2.799.764 5.561 2.218 7.997 4.511 7.814 6.766 16.683 6.475 25.697l-.037 1.599h-91.547v68.405a44.777 44.777 0 0016.695-5.634 18.806 18.806 0 019.638-2.689c10.293 0 18.659 8.359 18.659 18.646 0 10.286-8.366 18.646-18.659 18.646-3.419 0-6.765-.909-9.638-2.69-5.274-3.017-10.876-4.907-16.768-5.67z" fill="#96D9C9"/><path d="M331.976 492.708c-8.657 0-15.713-7.051-15.713-15.702 0-2.871.801-5.67 2.255-8.142a47.617 47.617 0 006.438-22.389l.037-1.345h-80.818c-3.383-12.322-5.128-24.716-5.128-36.856 0-28.169 8.911-54.557 25.132-74.22 16.695-20.246 39.791-31.404 65.069-31.404 30.952 0 53.866 12.903 67.651 23.734 13.603 10.686 21.241 21.554 22.55 23.481v33.293a45.656 45.656 0 01-15.676-5.524 18.332 18.332 0 00-9.456-2.617c-10.112 0-18.332 8.214-18.332 18.318 0 10.105 8.22 18.319 18.332 18.319 3.346 0 6.619-.908 9.493-2.653a45.2 45.2 0 0115.639-5.525v41.654h-80.49l.037 1.345a47.865 47.865 0 006.401 22.353c1.491 2.472 2.291 5.27 2.291 8.142 0 8.687-7.056 15.738-15.712 15.738z" fill="#51FEDD"/><path d="M329.684 295.708c-3.71.581-3.492 1.199-3.964 1.272-.546.073-7.238-3.271-7.238-3.271s-19.75-9.705-20.768-10.287l-14.258-17.846-10.984 5.016s16.04 18.973 17.022 19.809c1.018.836 29.315 10.722 31.788 11.667 0 0 2.474 2.254 4.074 3.635 1.6 1.381 3.746 1.89 4.255 2.217.073.037 1.855.982 4.365 1.527 2.146.472.364-.982.364-.982s-3.819-1.599-3.637-1.89c.145-.218 2.182.764 4.546 1.309.618.145 1.2.291 1.782.4 1.455.327 2.11-.509.618-1.091a13.389 13.389 0 00-2.036-.654c-.691-.145-1.31-.509-1.892-.727-1.127-.436-1.964-.727-1.927-.763.072-.037-.109-.291.545-.182.8.145 2.364.872 3.565.981.654.073 2.036.328 2.036.328s2.437.218 2.474-.109c.036-.764-1.455-1.164-2.401-1.164-.582-.29-2.037-.508-2.037-.508s-2.837-1.127-2.691-1.527c.073-.182 1.782.073 3.601.218 1.927.146 3.309.146 3.419-.254.145-.582-1.383-.8-1.383-.8s-1.345-.182-1.782-.291c-.509-.109-2.037-.581-2.037-.581s-5.237-1.927-5.019-2.29c.182-.4 1.055-1.2 1.419-1.2.363 0 1.018.364 1.382.364.364 0 1.164-.073 1.2-.545.073-.473-2-1.418-2-1.418s-1.346-.545-2.401-.363z" fill="#FFAD89"/><path d="M293.349 276.625s-3.564 3.235-5.019 4.289c-1.237.873-7.202 3.744-7.202 3.744s-5.965-9.087-8.547-13.666c-3.164-5.525-5.347-13.739-4.619-13.994 2.109-.618 4.983-1.018 7.638.218 9.202 4.216 17.749 19.409 17.749 19.409z" fill="#3B77BE"/><path d="M326.229 300.433c1.564.254 3.201-.037 3.892-1.491.145 1.709-2.437 2.581-3.892 1.491zm-91.038 114.82l-.401 6.978c-.145.873-.727 3.053-.727 3.853 0 3.017 13.421-2.544 10.439-3.889-.255-.109-1.71-1.054-1.783-2.072a593.441 593.441 0 00-.472-4.798l-7.056-.072z" fill="#FFAD89"/><path d="M244.465 422.195s-3.164.909-4.764 1.163c-1.601.218-3.747-1.708-4.874-1.199-1.273.581-1.2 5.779-1.2 5.779s16.912 1.49 21.677-.036c1.855-.618-4.401-3.563-10.839-5.707z" fill="#45258F"/><path d="M213.586 414.853s-.4 6.942-.4 6.978c-.145.873-.727 3.053-.727 3.853 0 3.017 13.421-2.544 10.438-3.889-.254-.109-2.109-1.708-2.218-2.762-.146-1.6-.073-4.108-.073-4.108l-7.02-.072z" fill="#FFAD89"/><path d="M222.861 421.759s-3.165.908-4.765 1.163c-1.6.218-3.746-1.708-4.874-1.2-1.273.582-1.309 5.78-1.309 5.78s16.804.69 21.787-.037c1.927-.291-4.365-3.562-10.839-5.706z" fill="#45258F"/><path d="M216.641 305.049s-2.291 11.74-1.346 20.645c.946 8.905 1.019 40.527 1.019 40.527l-3.528 50.595 8.402.181s9.965-50.595 9.783-49.286c-.181 1.308 3.347-35.62 3.347-35.62l-11.894-28.205-5.783 1.163z" fill="#2D185D"/><path d="M219.806 297.489s-10.33 10.831-6.474 22.644c1.527 4.761 15.93 50.122 16.112 53.83.182 3.707 4.874 44.706 4.874 44.706l9.784-.29 2.109-45.579-2.8-61.427-5.929-10.359-17.676-3.525z" fill="#45258F"/><path d="M282.474 262.341c-3.383-3.743-10.766-9.195-10.766-9.195s-4.365-3.744-6.183-4.326c-2.619-.908-7.129-3.307-13.64 6.506-4.655 7.052-34.044 43.471-38.881 44.707l31.534 15.011c.873-7.16 16.44-20.717 18.695-23.262 5.019-5.67 22.405-25.879 19.241-29.441z" fill="#3797DB"/><path d="M280.982 246.967l-9.82 5.742s-.291 8.36 2.946 10.505c2.692 1.817 4.728-2.545 4.728-2.545s3.637-5.052 6.438-6.615c2.764-1.563-4.292-7.087-4.292-7.087z" fill="#FFAD89"/><path d="M279.346 250.638c.363 1.744 1.236 4.252 2.546 6.324 1.091-1.163 2.291-2.326 3.382-2.908 1.273-.727.473-2.29-.8-3.78a54.97 54.97 0 00-3.492-3.307l-1.891 1.09c-.109.727.109 1.999.255 2.581z" fill="#D19369"/><path d="M286.111 232.609c-.182-.218-8.22 9.814-7.238 14.503.982 4.689 5.892 8.978 9.274 7.815 3.747-1.309 10.73-13.085 8.22-18.828-2.509-5.707-10.256-3.49-10.256-3.49z" fill="#FFAD89"/><path d="M294.949 229.447c-3.528-1.962-9.275-2.508-13.53-.29-5.274 2.762-6.474 9.668-4.838 13.884 1.637 4.216-.254 6.615-.254 6.615l2.8-1.635s1.637-2.545 1.855-4.58c.219-2.036 3.165-1.672 4.62-2.581 1.127-.69 2.546-3.017 4.328-4.18 0 0 4.546-.545 6.765.691 3.819 2.144 3.273-5.125-1.746-7.924z" fill="#5E2E0D"/><path d="M310.516 310.428c-3.855-.472-3.855-.145-4.328-.218-.582-.073-6.583-5.234-6.583-5.234s-17.75-15.047-18.695-15.883l-9.748-21.518-12.875 1.927s12.002 25.297 12.839 26.387c.836 1.091 27.206 16.466 29.461 18.065 0 0 2 2.908 3.31 4.689 1.309 1.781 3.346 2.907 3.819 3.38.072.073 1.636 1.49 4.037 2.726 2.073 1.054.582-.872.582-.872s-3.492-2.654-3.237-2.872c.182-.182 2 1.381 4.292 2.581.581.327 1.163.618 1.709.872 1.419.727 2.219.073.873-.872-.473-.364-1.273-.909-1.928-1.236-.691-.327-1.2-.872-1.746-1.236-1.054-.727-1.782-1.236-1.709-1.236.073-.036-.109-.363.546-.072.763.363 2.218 1.526 3.346 1.962.654.255 2 .909 2 .909s1.964.255 2.037.145c.4-.617-.764-1.09-1.71-1.344-.509-.437-1.964-1.091-1.964-1.091s-2.618-1.89-2.364-2.253c.109-.146 1.637.908 3.528 1.599 2.146.8 3.201.363 3.383.036.291-.545-1.019-.836-1.019-.836s-1.818-.436-2.218-.654c-.509-.254-6.292-4.616-6.001-4.943.29-.327 1.163-.327 1.527-.218.364.109 1.019.363 1.382.472.364.109 1.019-.327 1.164-.763.146-.436-1.237-1.236-1.237-1.236s-1.345-1.017-2.473-1.163z" fill="#FFAD89"/><path d="M260.324 279.933s3.709-1.163 6.074-2.253c1.6-.727 8.511-4.18 8.511-4.18s-2.983-12.576-5.02-17.083c-7.42-16.575-15.858-5.162-16.985-2.472-2.546 5.961 7.42 25.988 7.42 25.988z" fill="#62BDF3"/><path d="M530.31 445.13c-.037-8.033 2.036-15.884 6.074-22.826a18.312 18.312 0 002.618-9.45c0-10.105-8.22-18.319-18.331-18.319-10.111 0-18.331 8.214-18.331 18.319 0 3.344.909 6.615 2.655 9.486 4.037 6.943 6.11 14.793 6.074 22.826h-89.001v-44.67l-1.455.182c-6.438.799-12.548 2.835-18.149 6.069-2.474 1.491-5.274 2.29-8.148 2.29-8.656 0-15.712-7.051-15.712-15.702 0-8.65 7.056-15.701 15.712-15.701 2.874 0 5.674.799 8.148 2.253a47.738 47.738 0 0018.149 6.106l1.455.182v-36.274c1.309-1.963 8.947-12.794 22.55-23.48 13.749-10.832 36.663-23.735 67.651-23.735 25.242 0 48.374 11.159 65.069 31.404 16.222 19.664 25.133 46.015 25.133 74.22 0 12.14-1.71 24.535-5.129 36.856H530.31v-.036zm67.578 58.118h-26.66a2.398 2.398 0 110-4.798h26.66a2.397 2.397 0 012.401 2.399 2.42 2.42 0 01-2.401 2.399z" fill="#7C7EFF"/><path d="M600.507 506.992h-31.898a2.398 2.398 0 110-4.798h31.898c1.309 0 2.4 1.054 2.4 2.399a2.397 2.397 0 01-2.4 2.399z" fill="#45258F"/><path d="M506.923 666.119s-2.473 2.435-2.51 3.307c-.072.909-.218 10.432.801 11.341 1.018.908 3.964 1.526 3.019 2.507-.728.764-6.22.582-9.857.4-1.055-.072-2.401-8.687-2.837-9.922-.619-1.854-2.837-5.852-2.255-7.124.254-.618 2.291-2.036 4.11-3.235 1.927-1.272 3.782-4.071 3.782-4.071l5.747 6.797zm32.88 5.96s-2.182 6.289-2.219 6.325c-.145.981-.8 3.453-.8 4.362 0 3.416 15.167-2.872 11.748-4.398-.291-.146-1.273-1.236-1.382-2.399-.146-1.781 1.273-4.035 1.273-4.035l-8.62.145z" fill="#FFAD89"/><path d="M560.716 552.644l5.492 14.211s3.565 33.876 1.492 54.157c-.873 8.469-19.75 53.903-19.75 53.903l-9.384-1.345 12.548-53.794-4.619-20.572-6.547-40.636 20.768-5.924z" fill="#2D185D"/><path d="M534.856 553.371l-4.692 15.811-7.165 47.723-24.223 44.634s3.637 5.597 7.565 6.47l34.371-45.107 18.622-56.483-.654-12.539-23.824-.509z" fill="#45258F"/><path d="M607.126 527.055c-2.8 1.272-2.546 1.818-2.909 1.963-.437.182-6.366-1.708-6.366-1.708s-17.531-5.416-18.44-5.743l-14.73-14.212-7.748 6.906s16.331 14.939 17.313 15.52c.982.582 25.315 4.544 27.425 4.98 0 0 2.4 1.672 3.928 2.653 1.527.982 3.346 1.091 3.819 1.272.072.037 1.636.582 3.746.618 1.819.037.109-1.017.109-1.017s-3.346-.8-3.237-1.091c.073-.254 1.855.327 3.855.364.51 0 1.019.036 1.492.036 1.236 0 1.564-.909.291-1.163a8.5 8.5 0 00-1.746-.218c-.582 0-1.128-.255-1.637-.327-.982-.182-1.709-.327-1.673-.364.036-.073-.146-.254.4-.254.655 0 2.037.363 3.019.254.545-.073 1.673-.073 1.673-.073s1.855-.29 1.855-.436c.073-.727-1.309-.981-2.037-.763-.509-.182-1.709-.109-1.709-.109s-2.474-.509-2.401-.945c.036-.364 6.147-.509 6.147-1.236 0-.581-1.819-.654-1.819-.654s-1.127.073-1.491.073c-.436 0-1.746-.182-1.746-.182s-4.51-.8-4.437-1.2c.073-.399.618-1.344.909-1.381.291-.072.873.146 1.164.073.291-.073.618-.473.582-.909-.036-.436-1.564-.799-1.564-.799s-1.237-.291-2.037.072z" fill="#F8A492"/><path d="M569.991 510.954l-7.384 9.995s-6.51-7.814-9.456-11.703c-3.564-4.762-7.456-11.341-6.874-11.668 1.636-1.017 3.637-2.072 6.001-1.454 8.256 2.108 17.713 14.83 17.713 14.83z" fill="#3B77BE"/><path d="M497.466 663.32s5.165 15.847 7.384 16.611c.582.218 3.891 1.054 4.437 2.326 0 .036.036.072.036.109.182.799-.509 1.526-1.309 1.526h-10.511s-1.492-7.124-2.074-10.249c0 0-3.128-7.633-2.764-8.324.328-.69 4.801-1.999 4.801-1.999zm38.445 20.536l1.673-5.561s3.674 1.563 5.529 1.308c1.818-.254 5.383-1.308 5.383-1.308 7.274 2.435 13.239 3.598 12.148 5.561h-24.733z" fill="#45258F"/><path d="M604.871 531.889c1.346-.036 2.437-.617 3.201-1.926-.291 1.817-2 2.581-3.201 1.926z" fill="#FFAD89"/><path d="M536.748 495.797s-8.802.945-11.748 1.963c-2.474.872-5.784 8.869-5.784 8.869s13.312 38.491 12.803 45.361c-.509 6.869-2 17.083-2 17.083s26.224 1.672 36.19-2.254c0 0-3.128-15.593-3.128-19.7 0-4.107-1.746-45.034-3.019-47.178-1.273-2.145-3.783-3.38-8.584-4.398-4.801-1.018-14.73.254-14.73.254z" fill="#3797DB"/><path d="M538.493 484.348l-1.746 11.449s5.274 6.07 9.093 4.871c3.201-.982 2.364-5.489 2.364-5.489s-1.745-6.47-1.236-9.741c.509-3.198-8.475-1.09-8.475-1.09z" fill="#FFAD89"/><path d="M546.968 485.475c.509-3.235-8.475-1.127-8.475-1.127l-.145.945c.255.618.582 1.163.982 1.599 2 2.145 5.165 3.417 7.856 3.526-.291-1.745-.436-3.599-.218-4.943z" fill="#D19369"/><path d="M537.002 468.137c-.254-.109-2.036 13.049 1.346 16.647 3.383 3.598 9.966 4.798 12.33 1.963 2.619-3.163 2.473-17.265-2.764-20.973-5.238-3.707-10.912 2.363-10.912 2.363z" fill="#FFAD89"/><path d="M545.913 458.76c-4.073.836-6.692 3.307-7.674 4.325-1.855.218-4.365 1.236-6.947 5.488-3.201 5.234-.837 11.05 2.873 13.885 3.71 2.835 3.674 6.143 3.674 6.143l.582-1.709c.436-1.272.618-2.653.473-3.998-.073-.8-.255-1.672-.582-2.399-.91-1.89 1.927-3.162 2.691-4.761.618-1.236.619-3.998 1.601-6.034l1.127-1.526s2.619-2.036 5.201-1.454c2.583.581 2.219-9.014-3.019-7.96z" fill="#282828"/><path d="M539.222 481.018c.924-.016 1.651-1.33 1.624-2.936-.028-1.606-.799-2.895-1.723-2.879-.924.016-1.651 1.33-1.623 2.936.027 1.606.798 2.895 1.722 2.879z" fill="#FFAD89"/><path d="M605.672 505.502h-52.957v45.906h52.957v-45.906z" fill="#00BACD"/><path d="M631.604 505.502h-45.937v45.906h45.937v-45.906z" fill="#51FEDD"/><path d="M584.758 550.427c-2.691-.8-33.68-8.724-34.844-9.487-1.164-.763-20.295-18.61-20.295-18.61l10.948-5.779 17.131 16.865c1.164.473 23.096 8.833 23.096 8.833s6.692 2.726 7.274 2.616c.509-.109.909-.545 4.728-1.381 1.091-.254 2.655.218 2.655.218s1.928.582 1.928 1.054c0 .473-.473.8-.873.836-.4.037-1.127-.29-1.528-.29-.4.036-1.2.872-1.345 1.272-.109.254 5.346 4.216 5.601 4.725.109.109 6.62-.327 6.365.109 0 .654-.764.472-.764.581-.109 1.781-9.311 3.09-9.929 2.908-1.019-.291-10.148-4.47-10.148-4.47z" fill="#FFAD89"/><path d="M535.547 530.545l12.548-8.215s-14.548-22.026-19.495-24.316c-3.419-1.563-7.674.8-9.347 6.579-1.819 6.324 16.294 25.952 16.294 25.952z" fill="#3B77BE"/><path d="M627.022 515.861l-2.146 2.035v-11.922a2.265 2.265 0 00-2.255-2.253h-18.622a2.265 2.265 0 00-2.255 2.253v13.848l-2.292-3.961-7.856 2.289s6.292 11.995 10.148 13.958c5.128 2.616 17.931 2.544 23.095 0 3.165-1.563 8.511-11.159 8.511-11.159l-6.328-5.088z" fill="#7C7EFF"/><path d="M619.929 533.562c-.363-4.108-3.128-7.343-6.51-7.343-3.383 0-6.147 3.235-6.511 7.379 4.038.618 9.021.618 13.021-.036z" fill="#45258F"/><path d="M509.069 199.025c-1.891 3.235-5.274 3.09-8.911 3.998-2.437.618-3.928 4.616-3.71 7.669.582 7.706-5.419 6.397-10.293 9.56-11.603 7.632-4.11 27.514 8.583 28.786 2.546.255 5.456-.145 7.711-1.417 1.819-1.018 3.092-2.326 5.129-3.053 4.291-1.527 9.056-2.036 12.475-5.343 4.91-4.689.837-7.015 2.11-10.432 1.273-3.416 6.692-1.708 7.747-8.796 1.127-7.669-.109-14.284-2.946-18.101-4.692-6.324-12.912-6.724-15.931-4.834a6.294 6.294 0 00-1.964 1.963z" fill="#5E2E0D"/><path d="M562.426 213.418c-.437-.945-4.474 1.854-5.347 1.345-.873-.545 3.601-5.052 3.128-5.852-.836-1.454-5.237 4.653-5.637 3.998-.437-.654 3.782-7.16 2.291-7.523-1.491-.364-3.674 7.233-4.437 6.724-.764-.473 2.655-6.87 1.2-8.178-.764-.691-4.437 11.631-5.783 12.14-1.346.509-2.837-4.871-4.074-4.653-1.236.218 4.11 9.923 3.856 10.65-.255.763-5.165 16.574-8.075 21.372a331.8 331.8 0 01-5.055-2.472c-.655 3.671-.728 7.524-1.564 11.122 5.601 2.472 10.62 4.253 12.257 3.672 4.983-1.818 7.42-25.916 8.22-30.423.8-4.507 2.909-5.379 4.146-7.742 1.128-2.326 5.31-3.198 4.874-4.18z" fill="#FFAD89"/><path d="M520.889 233.7l-8.292 8.36s10.984 5.961 20.295 10.031c.836-3.598.909-7.451 1.564-11.122-7.674-3.852-13.567-7.269-13.567-7.269z" fill="#7C7EFF"/><path d="M572.756 326.748c3.637 4.289 6.292 8.76 6.583 9.341.145.255.182 1.781.327 2.072 5.674 3.744 11.675 2.69 16.622 1.163-3.237-1.417-7.784-3.017-8.184-3.707-.691-1.091-3.782-5.016-6.947-12.067-2.582 2.507-4.983 2.217-8.401 3.198z" fill="#FFAD89"/><path d="M579.375 336.271c-.509 2.253-.291 6.869.145 6.942.546.109 19.568 2.944 22.005.473 1.455-1.454-1.309-2.617-5.274-4.435-4.91 1.599-16.694-1.454-16.876-2.98z" fill="#3797DB"/><path d="M574.356 343.904c3.637 4.289 6.292 8.759 6.583 9.341.145.254.182 1.781.327 2.072 5.674 3.743 11.676 2.689 16.622 1.163-3.237-1.418-7.783-3.017-8.183-3.708-.692-1.09-3.783-5.015-6.947-12.067-2.583 2.508-4.983 2.217-8.402 3.199z" fill="#FFAD89"/><path d="M581.011 353.427c-.509 2.253-.291 6.869.146 6.942.545.109 19.568 2.944 22.005.472 1.455-1.454-1.31-2.617-5.274-4.398-4.947 1.563-16.695-1.454-16.877-3.016z" fill="#3797DB"/><path d="M583.667 326.53l-9.893 3.417-53.321-44.198s13.021-.182 36.335 2.217c6.947.727 26.879 38.564 26.879 38.564z" fill="#00BACD"/><path d="M500.449 282.114s-1.419 3.744-1.601 5.779c-.581 6.579 2.837 14.975 6.511 16.247 3.783 1.309 26.915 7.779 40.845 5.816l30.189 40.236 10.075-4.435-23.606-41.399s-4.546-7.124-8.292-8.796c-3.747-1.672-34.117-9.777-34.117-9.777l-4.692-6.833-15.312 3.162z" fill="#51FEDD"/><path d="M525 240.388c-1.673-3.09-3.383-5.525-3.383-5.525-1.746-3.089-6.219-4.652-6.219-4.652s-1.492.036-3.201.109c-.109.291-.218.472-.327.581-.655.473-4.365-.145-6.729 1.491-8.002 6.869-5.783 40.272-5.165 50.812l19.459.727s1.855-23.153 6.801-29.004c3.456-4.071 1.237-9.959-1.236-14.539z" fill="#7C7EFF"/><path d="M514.016 218.907s-1.346 9.595-2.292 11.958c-.945 2.326 5.165 7.342 10.22 8.832 5.056 1.527-1.563-5.161-1.345-7.669.218-2.508 1.127-14.321 1.127-14.321l-7.71 1.2z" fill="#FFAD89"/><path d="M521.472 221.124c.145-1.963.254-3.38.254-3.38l-7.747 1.163s-.182 1.127-.4 2.726c3.164 1.817 5.965 1.236 7.893-.509z" fill="#D19369"/><path d="M516.416 201.351s-3.055.691-4.947 3.562c-1.891 2.872-3.164 11.34 3.019 15.302 6.183 3.962 11.021-1.635 11.094-7.087.109-5.453-1.055-12.722-9.166-11.777z" fill="#FFAD89"/><path d="M527.036 211.419c-.545 1.309-1.564 2.145-2.327 1.818-.764-.327-.946-1.636-.437-2.944.546-1.309 1.564-2.145 2.328-1.818.764.327.982 1.636.436 2.944zm-15.64 1.091c.437 1.417.037 2.798-.909 3.126-.946.29-2.109-.582-2.546-2.036-.436-1.417-.036-2.799.909-3.126.946-.29 2.11.618 2.546 2.036z" fill="#FFAD89"/><path d="M537.075 244.023s2.073.072 2.692 0c3.418-.328 2 4.725 2 4.725s-1.673-1.636-2.328-1.636c-.654 0-1.6.182-1.6.182l-.764-3.271z" fill="#45258F"/><path d="M548.641 277.752s1.419 2.181 2.983 1.2c1.564-.982 4.292-2.872 4.801-1.454.509 1.417.4 2.617-.146 2.908-.545.29-4.619 2.508-6.837 2.653-2.219.145-4.038-1.926-4.038-1.926l3.237-3.381z" fill="#3B77BE"/><path d="M551.951 282.696c-.073-1.745-.4-3.635-1.346-5.271-2.4-4.18-12.62-15.447-14.148-16.319-1.528-.873-.437-4.253-.437-4.253l-6.037-3.271-3.165-1.708s-7.128 10.904-7.674 11.921c-.546 1.018.437 4.398-.291 6.47-.727 2.072.036 13.339-.982 14.575-.8.8-1.564.909-1.782 1.381-.109.218-.255.582.036.945.837 1.054 5.02.182 5.02.182.036-.073 1.745-2.472 1.491-3.925-.255-1.382.582-9.778 1.164-9.778.509 0 2.909 3.744 3.891 4.435.109.072.182.109.255.109.691 0 5.165.981 6.147 1.962.254.255.363.982.363 1.854 0 .582-.036 1.272-.072 1.926-.109 1.236-.255 2.545-.4 3.381h3.2c.873-1.563 2.728-2.654 4.874-2.654 2.001 0 3.783.982 4.692 2.399 1.782-.109 2.473.764 4.001.618 0-.509 1.237-4.289 1.2-4.979z" fill="#3797DB"/><path d="M537.693 244.531c-.654-.654-1.6-.908-2.546-.763-.509.073-1.236.109-2.218.036-2.219-.218-4.51-.036-5.929 1.418-1.418 1.417-1.6 6.542 0 8.941 1.6 2.399 6.183 3.017 6.583 4.107.4 1.091 4.365 1.6 4.91.291 0 0 .437.291 1.055.109 1.491-.436 2.037-1.89 1.491-3.453-.509-1.563-2.727-4.797-2.327-7.705.181-1.418-.364-2.363-1.019-2.981z" fill="#3B77BE"/><path d="M536.748 254.345c-.255.254-.255.691-.037.981.473.546 1.273 1.418 1.855 1.781.873.509 1.71-1.635 1.71-2.58.036-.945-1.964-1.745-3.528-.182z" fill="#45258F"/><path d="M535.839 269.683c-.037-.472-.4-.836-.873-.799-2.364.145-3.965 2.289-3.674 4.616v.327c-.072.4-.8 1.781-1.527 3.198 1.418.364 2.837.691 4.219 1.054a105.177 105.177 0 012.073-3.453l-.218-4.943z" fill="#3B77BE"/><path d="M527.8 280.624s-1.6 4.798-2.073 6.615c1.31.727 2.073-.727 5.019.109.073-.582 1.128-4.144 1.128-5.016 0-.436 1.309-2.435 2.328-4.18.072-.145 0-.291-.146-.327-1.273-.363-2.909-1.018-4.182-1.381a.365.365 0 00-.401.182c-.873 1.708-1.673 3.998-1.673 3.998z" fill="#3B77BE"/><path d="M524.564 286.766c.327-.69 1.236-1.49 2.618-1.49s3.565 2.036 3.565 2.036-.655.617-2.437.617c-1.782.037-4.365.182-3.746-1.163zm8.074-.254c.327-.691 1.236-1.49 2.618-1.49.51 0 1.164.29 1.746.654.946.582.546 2.035-.545 2.035h-.037c-1.818-.036-4.401.109-3.782-1.199zm12.912 0c.4-.691 1.491-1.49 3.164-1.49.618 0 1.382.29 2.073.654 1.128.582.655 2.035-.654 2.035h-.073c-2.146-.036-5.274.109-4.51-1.199z" fill="#3B77BE"/><path d="M531.728 245.585c-.654-.654-.254-1.417.109-1.853-1.855-.037-3.637.29-4.837 1.49-1.418 1.417-1.6 6.542 0 8.941 1.455 2.145 5.274 2.872 6.329 3.78 1.091-1.853-.582-3.416-.982-4.325-.401-.872 1.964-3.089 2.255-4.834.254-1.781-1.892-2.217-2.874-3.199z" fill="#45258F"/><path d="M528.601 244.168s-1.419.509-3.237-.146c-1.783-.654-3.601 2.581-3.601 2.581s1.673 3.598 2.982 4.471c1.382.872 3.856-6.906 3.856-6.906z" fill="#3B77BE"/><path d="M551.442 274.808c0-.799-2.437-3.089-3.638-2.726-1.127.364-5.783 3.271-5.783 3.271l-20.477-4.797s-5.165-11.777-5.674-21.918c-4.292.582-7.201 1.636-10.911 3.708 1.782 9.668 6.147 25.37 10.948 28.314 2.036 1.236 26.223-1.49 26.223-1.49s5.02.69 6.293.363c5.128-1.417 3.019-3.126 3.019-4.725z" fill="#FFAD89"/><path d="M516.015 237.807c-.618-3.053-1.382-6.106-4.691-7.088-2.037-.617-4.365-.036-6.002 1.309-1.964 1.599-2.509 4.143-2.473 6.579.037 5.488.4 11.195 1.382 16.61 3.71-2.072 9.129-1.817 13.385-2.399.436-4.906-.8-11.013-1.601-15.011z" fill="#45258F"/><path d="M349.907 220.615c-2.182 11.522-9.093 35.693-20.368 35.329-.546-15.774-1.31-29.332-2.401-33.621a21.577 21.577 0 00-.909-2.58c7.02.618 11.239-10.105 12.875-17.629-1.454 4.798-4.691 12.467-8.983 15.012-2.437 1.454-4.219.727-4.874.509-4.074-7.597-11.784-12.686-15.494-17.193-2.946-3.634-1.055-18.1-.328-22.68-1.018 5.307-2.146 13.121-1.673 18.573.582 6.143 3.746 6.506 10.984 14.757 5.82 6.506 7.82 9.995 8.039 34.893-.437.109-1.019.182-1.601.218-5.965.109-11.42-5.67-14.439-10.722 2.4 4.58 6.619 9.777 11.602 11.376.909.291 1.855.437 2.837.473.509 0 1.091-.036 1.601-.109.145 2.181.8 44.961.218 72.585 1.746.036 1.418-.8 3.164-.655-.073-7.487.327-35.474-.473-60.045 13.13-.509 18.659-24.861 20.223-38.491z" fill="#7C7EFF"/><path d="M301.642 182.852c2.691 2.145 6.692 1.636 6.692 1.636l-9.711-7.815s.328 4.035 3.019 6.179z" fill="#00BACD"/><path d="M298.623 176.672l9.711 7.778s-.363-3.998-3.018-6.179c-2.728-2.145-6.693-1.599-6.693-1.599z" fill="#51FEDD"/><path d="M346.779 254.091c3.455-.146 6.11-3.163 6.11-3.163l-12.439.473c0 .036 2.91 2.835 6.329 2.69z" fill="#00BACD"/><path d="M340.45 251.437l12.439-.472s-2.909-2.799-6.328-2.69c-3.419.145-6.111 3.162-6.111 3.162z" fill="#51FEDD"/><path d="M350.379 241.589c2.365-1.527 2.983-4.725 2.983-4.725l-8.511 5.488s3.201.763 5.528-.763z" fill="#00BACD"/><path d="M344.851 242.35l8.511-5.488s-3.201-.763-5.529.763c-2.364 1.49-2.982 4.725-2.982 4.725z" fill="#51FEDD"/><path d="M338.232 241.115c.982 2.617 3.964 3.925 3.964 3.925l-3.491-9.486s-1.455 2.944-.473 5.561z" fill="#00BACD"/><path d="M338.704 235.554l3.492 9.486s1.455-2.944.473-5.561c-.946-2.617-3.965-3.925-3.965-3.925z" fill="#51FEDD"/><path d="M310.662 190.047c-2.11 1.454-2.582 4.435-2.582 4.435l7.601-5.307s-2.946-.582-5.019.872z" fill="#00BACD"/><path d="M315.681 189.177l-7.601 5.307s2.946.581 5.055-.873c2.11-1.454 2.546-4.434 2.546-4.434z" fill="#51FEDD"/><path d="M339.723 211.274c-2.546-.182-4.801 1.817-4.801 1.817l9.238.727s-1.891-2.326-4.437-2.544z" fill="#00BACD"/><path d="M344.16 213.818l-9.238-.727s1.891 2.327 4.437 2.508c2.583.218 4.801-1.781 4.801-1.781z" fill="#51FEDD"/><path d="M312.408 240.352c-2.546-.182-4.801 1.817-4.801 1.817l9.238.727s-1.891-2.326-4.437-2.544z" fill="#00BACD"/><path d="M316.845 242.896l-9.238-.727s1.891 2.326 4.437 2.508c2.582.218 4.801-1.781 4.801-1.781z" fill="#51FEDD"/><path d="M317.209 237.771c-.946-2.399-3.71-3.526-3.71-3.526l3.382 8.651s1.237-2.726.328-5.125z" fill="#00BACD"/><path d="M316.882 242.896l-3.383-8.651s-1.273 2.726-.327 5.089c.909 2.399 3.71 3.562 3.71 3.562z" fill="#51FEDD"/><path d="M335.467 208.003c-.582-1.527-2.328-2.29-2.328-2.29l2.074 5.561c-.037 0 .8-1.745.254-3.271z" fill="#00BACD"/><path d="M335.176 211.274l-2.073-5.561s-.836 1.708-.255 3.271c.582 1.527 2.328 2.29 2.328 2.29z" fill="#51FEDD"/><path d="M304.77 195.645c-2.401-.909-5.092.363-5.092.363l8.656 3.308s-1.164-2.763-3.564-3.671z" fill="#00BACD"/><path d="M308.334 199.316l-8.656-3.308s1.164 2.762 3.564 3.671c2.364.909 5.092-.363 5.092-.363z" fill="#51FEDD"/><path d="M335.249 319.224h1.346V266.23a.69.69 0 00-1.382 0v52.994h.036z" fill="#00BACD"/><path d="M319.537 321.15s6.219-7.487 11.239-5.343c5.019 2.145 5.819-1.708 8.438-.436 2.618 1.272 5.892 4.471 5.892 4.471l-25.569 1.308z" fill="#3B77BE"/><path d="M331.539 281.205c-1.418 0-3.091-.327-4.874-1.272-.145-.072-.218-.291-.145-.436.073-.145.291-.218.436-.145 5.383 2.835 9.275-.182 9.42-.327a.382.382 0 01.473.036.38.38 0 01-.036.472c-.036.037-2.11 1.672-5.274 1.672z" fill="#3797DB"/><path d="M327.029 280.006l-.582-.327c-.436-.255-4.292-2.581-4.437-4.362-.037-.436.145-.8.509-1.09.655-.509 1.273-.655 1.855-.436 1.855.726 2.51 5.052 2.582 5.561l.073.654zm-3.201-5.67c-.254 0-.545.145-.872.4a.653.653 0 00-.255.545c.073 1.054 2.182 2.617 3.492 3.453-.291-1.491-.982-3.889-2.037-4.326a1.069 1.069 0 00-.328-.072z" fill="#3797DB"/><path d="M322.919 283.968c-.218 0-.546-.073-.8-.509a1.092 1.092 0 01-.109-1.054c.509-1.418 3.6-2.508 3.964-2.617l.8-.255-.4.727c-.363.618-2.146 3.708-3.455 3.708zm2.401-3.199c-1.019.436-2.401 1.163-2.692 1.89-.073.182-.036.327.036.509.11.182.182.182.255.182.582-.036 1.6-1.345 2.401-2.581z" fill="#3797DB"/><path d="M326.775 280.079a.545.545 0 100-1.09.545.545 0 000 1.09z" fill="#3797DB"/><path d="M55.627 515.466l2.849 5.292 6.07-.277 2.693 6.132 6.428-2.299 3.347 6.754 6.163-1.412 4.266 6.039-2.272 1.616-3.192-4.435-6.458 1.474-3.254-6.537-6.537 2.346-2.974-6.785-5.992.308-2.553-4.903-3.829.994-.716-2.723 5.96-1.584z" fill="#F2D668"/><path d="M52.08 523.297l2.849 5.291 6.07-.276 2.693 6.131 6.428-2.299 3.347 6.754 6.163-1.412 4.266 6.039-2.272 1.617-3.192-4.436-6.459 1.474-3.254-6.536-6.536 2.346-2.974-6.786-5.992.308-2.553-4.902-3.829.993-.716-2.723 5.96-1.583z" fill="#F2D668"/><path d="M390.242 193.173l-8.001-1.817-2.146 5.67-7.966-1.527-2.873 5.198-6.147-.4-.036 2.472 8.22.508 2.728-4.906 8.292 1.599 2.11-5.597 7.238 1.671-1.419-2.871z" fill="#F74951"/><path d="M617.856 322.568l2.91-4.87-2.4-5.162c-.255-.581.254-1.235.873-1.09l5.528 1.236 4.146-3.853c.473-.436 1.237-.145 1.31.509l.545 5.634 4.947 2.762a.765.765 0 01-.073 1.381l-5.201 2.254-1.091 5.561c-.109.618-.909.836-1.346.363l-3.746-4.252-5.638.69c-.654.109-1.091-.581-.764-1.163z" fill="#7C7EFF"/><path d="M220.37 180.547l4.647-7.778-3.834-8.242c-.406-.928.407-1.973 1.394-1.741l8.829 1.973 6.621-6.152c.756-.697 1.975-.232 2.091.812l.872 8.997 7.899 4.411c.929.523.813 1.8-.116 2.206l-8.306 3.599-1.742 8.88c-.175.987-1.453 1.335-2.15.581l-5.982-6.791-9.003 1.102c-1.045.175-1.742-.928-1.22-1.857zM86.99 375.205s.909-2.544 3.891-3.416c2.692-.8 5.165.763 5.892 3.235.873 2.871-.618 7.015-6.255 11.921-7.42-.981-10.948-3.634-11.821-6.469-.728-2.472.473-5.162 3.128-5.961 3.019-.945 5.165.69 5.165.69zm-21.787 7.779c2.728-.364 4.91-.8 7.02-1.309.69-.181 1.964-.254 2.291-.981.182-.364.11-.763-.254-1.018-.655-.436-1.637.037-2.365.218-2.145.509-4.582 1.018-7.092 1.382-.473.072-.764.617-.655 1.054.11.472.582.69 1.055.654zm37.135-3.308c1.019-.218 2.037-.472 3.092-.727.982-.254 2.182-.363 3.019-.909.618-.399.472-1.344-.328-1.417-1.018-.109-2.109.327-3.091.581l-3.055.764c-1.092.291-.728 1.962.363 1.708zm-24.405 14.43c.764-2.472 2.182-3.526 3.164-4.653a.698.698 0 00-.8-1.126c-2.073.872-3.419 3.235-4.037 5.27-.327 1.054 1.346 1.563 1.673.509zM91.1 396.65c-.291-1.054-.4-2.108-.255-3.198.109-.655.91-2.654-.364-2.654-1.2-.036-1.382 1.999-1.455 2.835a9.039 9.039 0 00.328 3.417c.327 1.054 2.037.691 1.746-.4zm7.128-8.578c.655.291 1.346.546 2.001.836.655.291 1.346.727 2.073.4.4-.182.473-.654.327-1.018-.254-.654-1.273-.872-1.891-1.126-.655-.255-1.346-.546-2-.8-.437-.182-.983.182-1.128.582-.145.508.182.945.618 1.126zm-19.822-17.483c-3.455-4.725-3.419-4.761-3.965-5.088-.545-.327-1.309.182-1.163.836.145.654.145.545 3.782 5.488.291.4.946.364 1.273.037.4-.328.364-.873.073-1.273zm9.347-2.289c.146-.945.146-1.927.073-2.872-.073-.909-.073-2.253-.982-2.69a.699.699 0 00-.655.146c-.618.654-.182 1.817-.109 2.617.073.908.037 1.817-.036 2.689-.037.473.4.873.836.909.473.036.8-.327.873-.799zm13.421-2.363c.073-.436-.363-.727-.727-.8-.764-.109-1.528.8-2.037 1.309a15.294 15.294 0 00-1.6 1.854c-.291.399-.11.981.29 1.199.437.291.91.073 1.201-.291 1.928-2.399 2.728-2.181 2.873-3.271z" fill="#FF62C2"/><path d="M730.163 380.52c-.873 6.725 6.146 12.068 12.402 11.668 6.911-.473 12.767-6.107 13.749-12.903 1.091-7.343-3.31-13.194-10.148-13.74-6.656-.508-10.875 5.38-8.984 11.341 1.382 4.289 5.274 5.852 7.238 4.688 1.528-.908 1.455-3.234-.4-3.634-.727-.182-1.527.254-1.891.836-1.637-.655-3.164-3.599-2.11-6.797 1.346-4.071 6.511-4.325 9.711-2.399 4.074 2.435 4.729 7.633 3.237 11.776-1.564 4.362-5.855 7.779-10.511 8.142-5.274.363-9.929-3.671-10.366-8.941-.109-1.272-1.782-1.236-1.927-.037z" fill="#F74951"/><path d="M145.208 533.162c-.436 3.453 3.165 6.179 6.365 5.961 3.528-.255 6.547-3.126 7.056-6.615.546-3.744-1.709-6.761-5.201-7.052-3.419-.254-5.565 2.763-4.583 5.816.692 2.181 2.692 3.017 3.71 2.399.801-.473.728-1.672-.218-1.854-.364-.073-.764.145-.982.436-.836-.327-1.637-1.854-1.091-3.489.691-2.072 3.31-2.217 4.983-1.236 2.073 1.236 2.4 3.925 1.637 6.034-.801 2.217-2.983 3.998-5.383 4.143-2.692.182-5.092-1.89-5.311-4.58-.036-.617-.873-.581-.982.037z" fill="#51FEDD"/><path d="M153.366 314.235l-.036-6.469-5.347-3.635c-.618-.4-.473-1.345.218-1.563l6.147-2.035 1.782-6.216c.219-.69 1.128-.872 1.564-.29l3.856 5.197 6.474-.218c.727-.036 1.164.8.764 1.418l-3.747 5.27 2.219 6.07c.255.69-.4 1.381-1.091 1.163l-6.147-1.963-5.092 3.962c-.727.436-1.564.036-1.564-.691zM694.83 512.588a5.382 5.382 0 005.383-5.38c0-2.97-2.41-5.379-5.383-5.379a5.381 5.381 0 00-5.383 5.379c0 2.971 2.41 5.38 5.383 5.38zm3.746 10.25c-.327-1.563-.509-3.235-1.054-4.762-.473-1.308-2.474-.908-2.401.509.109 1.709.655 3.453 1.019 5.125.145.691 1.054.981 1.636.8.764-.291.946-.982.8-1.672zm9.275-6.688c-1.782-1.054-3.346-2.363-5.019-3.598-1.273-.982-2.692.69-1.637 1.853 1.528 1.672 3.528 2.944 5.456 4.108.618.363 1.455 0 1.745-.582.364-.691.073-1.418-.545-1.781zm-3.382-9.668c-.4.327-.473.799-.219 1.235.619 1.091 2.146 1.054 3.237 1.018a10.512 10.512 0 003.347-.654c1.6-.545.727-3.017-.873-2.472-3.128 1.091-4.328-.072-5.492.873zm-1.746-10.468c-1.564 2.289-2.874 3.089-2.655 4.325.109.727.691 1.09 1.418.945.837-.182 1.309-1.091 1.819-1.708.473-.618.945-1.2 1.382-1.854.4-.582.436-1.345-.146-1.854-.436-.4-1.418-.436-1.818.146zm-6.11-.4c-.51-1.381-.619-1.89-1.273-2.544-.582-.546-1.746-.218-1.855.618-.11.981.109 1.308.654 2.798a1.358 1.358 0 001.673.8c.655-.255 1.055-1.018.801-1.672zm-6.62 3.344c-2.255-1.708-2.728-2.217-3.601-2.108-.509.072-1.091.545-.982 1.126.218 1.091.836 1.382 2.91 2.908.545.4 1.309.436 1.818-.109.436-.509.4-1.381-.145-1.817zm-9.093 7.887c-.91.473-.546 1.999.436 2.145.91.109 1.273-.037 5.783-.836.691-.109 1.273-.618 1.201-1.382-.037-.654-.691-1.344-1.383-1.199-4.655.8-5.128.8-6.037 1.272zm7.056 7.379c-2.474 2.398-2.837 1.962-3.783 3.416-.436.654.291 1.745 1.055 1.599.982-.181 1.273-.363 2.546-1.381.764-.581 1.491-1.236 2.182-1.89.509-.509.364-1.417-.145-1.853-.582-.546-1.346-.4-1.855.109z" fill="#F74951"/><path d="M609.732 189.472a6.795 6.795 0 006.797-6.793 6.795 6.795 0 00-6.797-6.793 6.795 6.795 0 00-6.797 6.793 6.795 6.795 0 006.797 6.793zm4.731 12.943c-.414-1.973-.643-4.085-1.332-6.012-.597-1.653-3.124-1.148-3.032.642.138 2.157.827 4.36 1.286 6.472.184.872 1.332 1.239 2.067 1.009.965-.367 1.194-1.239 1.011-2.111zm11.71-8.445c-2.25-1.331-4.225-2.983-6.338-4.544-1.607-1.239-3.398.872-2.067 2.341 1.929 2.111 4.455 3.718 6.89 5.187.78.459 1.837 0 2.204-.735.459-.872.092-1.79-.689-2.249zm-4.271-12.208c-.505.413-.597 1.009-.275 1.56.781 1.377 2.71 1.331 4.087 1.285a13.29 13.29 0 004.226-.826c2.021-.688.918-3.809-1.102-3.121-3.95 1.377-5.466-.092-6.936 1.102zm-2.204-13.219c-1.975 2.892-3.628 3.901-3.352 5.462.137.918.872 1.377 1.791 1.193 1.056-.229 1.653-1.377 2.296-2.157.597-.78 1.194-1.515 1.745-2.341.505-.734.551-1.698-.184-2.341-.551-.504-1.791-.55-2.296.184zm-7.716-.505c-.643-1.744-.781-2.386-1.607-3.212-.735-.689-2.205-.276-2.343.78-.138 1.239.138 1.652.827 3.534a1.716 1.716 0 002.113 1.01c.826-.322 1.332-1.285 1.01-2.112zm-8.359 4.223c-2.848-2.157-3.445-2.8-4.547-2.662-.643.092-1.378.688-1.24 1.423.275 1.376 1.056 1.744 3.674 3.671.689.505 1.653.551 2.296-.137.552-.643.506-1.744-.183-2.295zm-11.482 9.959c-1.148.597-.689 2.525.551 2.708 1.148.138 1.607-.046 7.303-1.055.872-.138 1.607-.781 1.515-1.744-.046-.826-.872-1.699-1.745-1.515-5.879 1.01-6.476 1.01-7.624 1.606zm8.91 9.318c-3.123 3.029-3.583 2.478-4.777 4.314-.551.826.368 2.203 1.332 2.019 1.24-.229 1.608-.459 3.215-1.744.965-.734 1.883-1.56 2.756-2.386.643-.643.459-1.79-.184-2.341-.735-.689-1.699-.505-2.342.138z" fill="#F1D35E"/><path d="M206.639 679.894h5.274V399.587c0-1.454-1.2-2.653-2.655-2.653a2.669 2.669 0 00-2.655 2.653v280.307h.036zm35.681 0h5.274V394.862a2.67 2.67 0 00-2.655-2.654 2.67 2.67 0 00-2.655 2.654v285.032h.036z" fill="#3797DB"/><path d="M246.721 427.356h-36.336v3.162h36.336v-3.162zm0 42.381h-36.336v3.162h36.336v-3.162zm0 42.38h-36.336v3.162h36.336v-3.162zm0 42.38h-36.336v3.163h36.336v-3.163z" fill="#3797DB"/><path d="M220.533 581.394h-22.951a3.414 3.414 0 00-3.418 3.417v12.866h3.819v-12.212h22.514v-4.071h.036z" fill="#13375B"/><path d="M224.898 572.707l-7.093-7.487s-7.601 4.18-16.476 8.178c-2.437-4.253-6.401-18.21-6.62-18.864-.218-.655 4.656-9.051 3.565-9.269-1.091-.218-2.51 4.471-3.674 3.998-1.164-.472-4.11-11.34-4.801-10.758-1.309 1.126 1.564 6.76.873 7.16-.691.4-2.437-6.252-3.746-5.961-1.309.291 2.219 6.07 1.855 6.652-.4.545-4.11-4.871-4.874-3.635-.4.691 3.419 4.725 2.619 5.198-.8.436-4.256-2.109-4.656-1.273-.4.836 3.237 1.672 4.256 3.781 1.018 2.108 2.837 2.907 3.455 6.869.618 3.962 2.291 25.079 6.583 26.788 3.747 1.454 28.734-11.377 28.734-11.377zm65.578 97.41c.545-3.998.509-11.34.218-19.119 3.492-.181 6.438-.4 9.893-.618-1.455 9.923-2.437 20.137-2.437 20.137l.255 1.962.145 5.816-19.677.145s4.147-1.853 9.966-5.488c.4-.291 1.382-1.127 1.637-2.835z" fill="#FFAD89"/><path d="M299.059 679.531l-20.768.254c-.764-.073-.946-.69-.691-1.054.546-.763 2.91-1.345 5.565-2.581 4.692.473 14.439-2.689 15.203-3.78.473 2.145 1.128 7.052.691 7.161z" fill="#45258F"/><path d="M325.756 666.01c-1.637-3.671-5.528-9.923-9.893-16.357a727.173 727.173 0 008.547-6.033l8.111 18.646 1.237 1.526 3.164 4.871-16.658 10.504s2.546-3.744 5.565-9.886c.218-.436.618-1.709-.073-3.271z" fill="#FFAD89"/><path d="M337.759 669.898l-17.277 10.723c-.691.327-1.164-.073-1.127-.545.036-.945 1.782-2.654 3.382-5.125 4.219-2.036 10.802-9.959 10.875-11.268 1.528 1.599 4.474 5.925 4.147 6.215z" fill="#45258F"/><path d="M317.645 503.975c1.528-7.487-3.273-14.938-10.075-17.737.036-4.253-1.346-9.668-4.255-12.613-5.747-5.779-16.731-7.778-20.95-.436-5.602 3.162-10.003 9.996-8.329 16.247-5.42 5.598-3.347 15.739 4.546 20.536-.109 6.288 3.201 12.54 8.693 15.23 1.309.654 3.382 1.563 3.637 1.817-.327-.327 4.074 11.995 17.822 6.361 14.039-5.743 18.04-21.917 8.911-29.405z" fill="#5E2E0D"/><path d="M290.112 664.483c1.709-9.45-4.219-32.894-7.82-43.18-3.746-10.722-6.147-56.047-6.147-56.047l4.256-4.98 17.385-1.054s-7.383 22.717-7.383 30.495c0 7.815 3.601 27.951 7.82 38.419 3.892 9.668 2.291 29.95 1.091 36.601-3.164.546-6.147.364-9.202-.254z" fill="#00BACD"/><path d="M302.151 561.331c.8.799 5.456 6.324 5.456 10.177 0 3.852-8.802 38.636-6.693 40.744 2.11 2.109 9.93 7.379 14.913 14.721 4.219 6.179 13.857 24.098 15.676 28.351-3.637 2.507-6.802 3.671-10.439 4.906-.582-3.162-29.061-34.529-32.298-41.072-3.237-6.542-5.019-36.528-6.656-40.526-1.636-3.998-6.037-14.103-6.037-14.103l26.078-3.198z" fill="#51FEDD"/><path d="M276.8 535.706s-10.73 12.249-22.623 16.829c-1.855.727-3.456 2.144-3.456 2.144 0 1.236 2.219.327 2.219.327s-.764 1.2-.364 2.69 2.983.509 4.401.509c.655 0 3.965-3.708 8.438-5.888 5.274-2.581 11.53-5.089 12.294-5.852 1.418-1.381-.473-11.195-.909-10.759z" fill="#FFAD89"/><path d="M298.623 501.249s-10.802-1.09-16.44 2.508c-5.638 3.598-9.238 16.392-9.238 21.844 0 5.453 4.073 34.203 2.509 39.655 0 0 17.859-.763 23.969-.763 6.111 0 7.347-2.327 7.347-2.327s-12.694-12.503-12.694-17.955c.037-5.488 4.547-42.962 4.547-42.962zM151.172 648.454v18.719h2.037v-17.011h13.385v5.852c-5.201.545-9.238 5.343-9.238 11.195 0 6.215 4.582 11.231 10.256 11.231s10.257-5.016 10.257-11.231c0-5.816-4.073-10.613-9.238-11.195v-5.852h2.8v-2.217h-2.8v-6.724h2.8v-2.217h-2.8v-7.488h36.735v-3.344h-20.295v-19.045c0-5.089 4.692-10.795 10.948-10.795h17.458v-3.344h-17.458c-7.457 0-14.003 6.579-14.003 14.102v19.046h-13.385V617.45h-2.037v21.517h-6.802c-4.764.037-8.62 4.289-8.62 9.487zm15.422-.509h-13.421c.254-3.744 3.128-6.724 6.619-6.724h6.802v6.724z" fill="#45258F"/><path d="M159.102 651.398l.4 7.233c.145.909.727 3.162.727 3.998 0 3.126-13.93-2.653-10.802-4.034.291-.109 1.891-1.854 2.291-2.835.728-1.781 1.019-5.234 1.019-5.234l6.365.872z" fill="#F48C7F"/><path d="M149.499 658.595s3.274.945 4.947 1.199c1.673.255 3.892-1.781 5.056-1.235 1.309.581 1.382 6.106 1.382 6.106s-17.531.581-22.587-.182c-2.037-.291 4.51-3.671 11.202-5.888z" fill="#466EB6"/><path d="M228.862 635.987h3.856v-73.275c0-2.472 2.437-4.471 5.383-4.471h34.625c.91 0 1.674-.727 1.674-1.599s-.764-1.599-1.674-1.599h-34.625c-5.092 0-9.239 3.453-9.239 7.669v73.275z" fill="#45258F"/><path d="M210.822 667.427c12.835 0 23.241-10.48 23.241-23.407 0-12.928-10.406-23.408-23.241-23.408-12.836 0-23.242 10.48-23.242 23.408 0 12.927 10.406 23.407 23.242 23.407z" fill="#45258F"/><path d="M182.525 644.02c0 15.738 12.657 28.532 28.297 28.532 15.603 0 28.297-12.758 28.297-28.532 0-15.739-12.657-28.533-28.297-28.533-15.604.037-28.297 12.794-28.297 28.533zm2.691 0c0-14.248 11.457-25.807 25.606-25.807 14.148 0 25.605 11.559 25.605 25.807s-11.457 25.806-25.605 25.806c-14.149.036-25.606-11.522-25.606-25.806z" fill="#45258F"/><path d="M240.756 567.546h-11.348v44.016h11.348v-44.016zm-48.629 71.458h-9.602c-5.165 0-9.384 4.252-9.384 9.486v18.719h2.182V648.49c0-3.998 3.238-7.269 7.202-7.269h9.602v-2.217z" fill="#7C7EFF"/><path d="M188.162 614.361h-29.897v5.125h29.897v-5.125z" fill="#45258F"/><path d="M191.945 647.945h-17.749v2.217h17.749v-2.217zm40.009-19.772h-40.991v3.343h40.991v-3.343z" fill="#7C7EFF"/><path d="M240.756 614.288h-53.357v5.198h53.357v-5.198z" fill="#45258F"/><path d="M239.119 639.912h3.31v-73.275c0-2.471 2.073-4.47 4.619-4.47h31.134v-3.199h-31.134c-4.365 0-7.929 3.453-7.929 7.669v73.275z" fill="#7C7EFF"/><path d="M190.963 678.404c6.85 0 12.403-5.029 12.403-11.231 0-6.203-5.553-11.232-12.403-11.232-6.85 0-12.403 5.029-12.403 11.232 0 6.202 5.553 11.231 12.403 11.231z" fill="#45258F"/><path d="M190.963 674.006c4.158 0 7.529-3.059 7.529-6.833s-3.371-6.833-7.529-6.833c-4.158 0-7.529 3.059-7.529 6.833s3.371 6.833 7.529 6.833z" fill="#7C7EFF"/><path d="M160.775 594.988c3.564-3.562 53.502-1.854 53.502-1.854s-42.3 10.323-44.773 11.667c-2.473 1.345-11.675 46.743-11.675 47.324-2.546-.618-4.11-.145-6.693-.69.437-7.888 3.856-50.668 9.639-56.447z" fill="#3B77BE"/><path d="M165.649 651.616l.4 7.233c.145.909.727 3.162.727 3.998 0 3.126-13.93-2.653-10.802-4.034.291-.109 2.218-1.781 2.291-2.835.146-1.636.073-4.253.073-4.253l7.311-.109z" fill="#F7A491"/><path d="M156.01 658.813s3.273.945 4.946 1.199c1.674.255 3.892-1.781 5.056-1.235 1.309.581 1.382 6.106 1.382 6.106s-17.531.581-22.587-.146c-2.036-.327 4.511-3.707 11.203-5.924z" fill="#466EB6"/><path d="M222.061 603.384s-.437 11.34-4.219 11.449c-3.783.146-27.97.691-41.609-.545l-9.166 40.49-10.766-1.054s3.237-27.042 4.401-37.328c1.128-10.141 4.401-18.609 10.148-18.828 5.71-.218 43.391-6.033 43.391-6.033l7.82 11.849z" fill="#3797DB"/><path d="M232.209 550.536s6.11 1.563 5.273 13.484c-.836 11.922-7.419 48.015-19.64 50.85-12.221 2.835-20.15-22.862-20.15-22.862s7.711-2.545 10.911-14.467c2.219-8.287 8.184-26.932 9.675-27.841 3.71-2.254 13.931.836 13.931.836z" fill="#51FEDD"/><path d="M206.639 630.717h3.31V609.09c0-5.088 5.092-10.795 11.893-10.795h18.95v-3.344h-18.95c-8.074 0-15.203 6.579-15.203 14.103v21.663zm34.117 43.289c14.724 0 26.66-12.042 26.66-26.897 0-14.855-11.936-26.897-26.66-26.897-14.725 0-26.661 12.042-26.661 26.897 0 14.855 11.936 26.897 26.661 26.897z" fill="#7C7EFF"/><path d="M208.276 647.109c0 18.101 14.548 32.749 32.48 32.749 17.931 0 32.479-14.648 32.479-32.749 0-18.101-14.548-32.748-32.479-32.748-17.932 0-32.48 14.684-32.48 32.748zm3.091 0c0-16.392 13.167-29.659 29.425-29.659 16.258 0 29.425 13.267 29.425 29.659 0 16.393-13.167 29.659-29.425 29.659-16.258 0-29.425-13.266-29.425-29.659z" fill="#7C7EFF"/><path d="M240.756 669.281c12.153 0 22.004-9.927 22.004-22.172 0-12.245-9.851-22.171-22.004-22.171s-22.005 9.926-22.005 22.171 9.852 22.172 22.005 22.172z" fill="#45258F"/><path d="M240.756 652.089c2.732 0 4.946-2.23 4.946-4.98 0-2.75-2.214-4.979-4.946-4.979-2.732 0-4.947 2.229-4.947 4.979s2.215 4.98 4.947 4.98z" fill="#7C7EFF"/><path d="M176.233 664.774h-33.608v5.815h33.608v-5.815z" fill="#45258F"/><path d="M176.196 664.774h-19.058v5.815h19.058v-5.815zm15.895-45.325h-2.219v51.177h2.219v-51.177z" fill="#7C7EFF"/><path d="M191.036 669.208c.743 0 1.346-.618 1.346-1.381s-.603-1.381-1.346-1.381c-.743 0-1.346.618-1.346 1.381s.603 1.381 1.346 1.381z" fill="#45258F"/><path d="M228.499 518.587s4.291-2.908 6.074 2.18c0-.036 1.527-.036 1.709.037.873.291 1.746 1.199 2.51 1.708 2.8 1.781 4.073 5.27 4.219 8.469.182 3.889-1.419 6.688-3.965 9.486-.763.836-1.564 1.636-2.546 2.145-1.2.618-2.109.145-3.237.4-.945.218-1.273 1.236-2.364.872-1.564-.509-3.164-2.435-5.092-2.144-1.928.29-6.365-1.454-6.365-1.454-5.71-2.217-1.855-13.231-.764-17.156 1.091-3.671 6.329-5.852 9.821-4.543z" fill="#282828"/><path d="M223.37 543.666l-1.491 4.035-.8 2.253s-.073 4.035.873 5.089c1.636 1.817 8.292-4.871 8.292-4.871l2.11-12.685-8.984 6.179z" fill="#FFAD89"/><path d="M231.699 541.558c-2.546 3.925-6.91 5.743-9.82 6.143l1.491-4.071 9.021-6.179-.692 4.107z" fill="#D19369"/><path d="M230.644 524.402c-3.382-2.072-7.856-.509-9.238 3.162a47.464 47.464 0 00-1.819 5.852c-1.309 5.416.364 11.34 2.837 11.886 2.474.545 10.075-1.454 12.039-9.16 1.164-4.689-.254-9.559-3.819-11.74z" fill="#FFAD89"/><path d="M234.721 534.597c-.981-.217-1.99.577-2.254 1.773-.265 1.196.316 2.341 1.297 2.557.981.217 1.99-.577 2.254-1.773.265-1.196-.316-2.341-1.297-2.557z" fill="#FFAD89"/><path d="M224.825 538.65s3.274 1.054 3.528 2.254c.255 1.199-.145 2.907-1.745 4.252-1.601 1.345-5.02.509-5.929-.218-.946-.727-1.637-3.816-.727-5.561.945-1.745 4.873-.727 4.873-.727z" fill="#282828"/><path d="M225.916 541.158s-.036 1.345-.472 1.563c-.437.218-.982.436-1.492.472-.836.073-1.564-.254-2-.908-.036-.073-.073-.109-.109-.182-.328-.654-.4-1.854-.4-1.854s1.382-.327 2.182-.181c.8.109 2.291 1.09 2.291 1.09zm35.244 15.52c1.273-1.272 7.275-3.271 11.821-6.542 2.001-1.454 5.856-3.344 9.639-5.452 2.727 1.526 5.237 3.416 7.092 5.706-6.801 3.126-14.185 6.252-15.276 7.379-2.11 2.108-5.783 6.869-6.656 6.869-.873 0-7.383-1.926-8.365-2.871-1.055-.982.436-3.78 1.745-5.089z" fill="#FFAD89"/><path d="M282.583 544.684c4.728-2.617 9.311-5.489 9.784-8.069.873-4.616-3.055-24.498-.873-28.351 2.182-3.816 7.129-7.015 7.129-7.015.8 0 3.601 1.709 4.364 5.162.801 3.452-.618 34.347-1.418 37.146-.364 1.309-5.71 6.579-11.748 9.341-1.819-2.253-4.474-6.688-7.238-8.214z" fill="#7C7EFF"/><path d="M233.809 586.41l-18.877 4.943s-5.565 3.998-8.038 4.798c-2.51.799-5.565 3.525-4.947 4.398.582.836 3.747-2.036 4.256-1.927.509.073-1.855 3.49-2.219 5.707-.4 2.217-1.164 4.398.146 4.216 1.273-.182 2.218-5.198 2.218-5.198s1.964-3.78 2.292-3.343c.327.436-1.31 3.053-1.31 3.053l-.545 3.816c-.109.727.545 2.944 1.127 2.145.328-.473.182-2.29.582-3.344.8-2.145 2.146-3.853 2.146-3.853s-1.418 6.397-.546 6.542c.91.146 1.819-5.161 1.819-5.161s2.182-4.434 3.128-4.798c.946-.4 3.564-2.071 5.601-2.762 2.037-.691 10.366 1.599 14.112 1.672 3.747.036 9.784-2.254 10.294-5.198.145-.908-.401-1.89-1.237-2.835-2.619-2.762-6.438-3.816-10.002-2.871z" fill="#FFAD89"/><path d="M232.209 550.536s5.71-1.018 10.875 8.287c5.164 9.305 1.818 33.257 1.818 33.257l-11.13-5.67-1.563-35.874z" fill="#00BACD"/><path d="M257.632 558.568c-.654 0-4.182.218-4.728-.327-.546-.545 1.819-1.963 2.073-1.708.255.254 1.237-.291 1.564.036.327.327 1.346-.036 1.637.255.291.254.145 1.744-.546 1.744zm35.39-66.951s-1.201 6.615-.946 9.196c.255 2.617-.909 11.013-6.11 11.049-5.202.037-1.674-8.723-1.164-11.267.473-2.544 1.273-12.431 1.273-12.431l6.947 3.453z" fill="#FFAD89"/><path d="M285.747 491.908c.073-2.145.473-3.889.473-3.889l6.801 3.598s-.254 1.345-.509 3.09c-3.019.654-5.456-.8-6.765-2.799z" fill="#D19369"/><path d="M293.167 472.426s2.91 1.054 4.51 4.216c1.601 3.163 2.11 12.068-4.292 15.484-6.437 3.417-10.657-2.871-10.256-8.541.4-5.634 2.182-13.013 10.038-11.159z" fill="#FFAD89"/><path d="M281.237 482.058c-.181 1.454.364 2.726 1.164 2.799.801.072 1.601-1.054 1.783-2.508.181-1.454-.364-2.726-1.164-2.799-.837-.109-1.637 1.018-1.783 2.508zm15.895 2.435c-.582 1.418-.291 2.908.618 3.308.909.436 2.11-.4 2.655-1.817.582-1.418.291-2.908-.618-3.308-.909-.4-2.11.4-2.655 1.817z" fill="#FFAD89"/><path d="M612.692 230.174l12.548 17.192 8.292-9.087-20.84-8.105z" fill="#45258F"/><path d="M634.66 233.554l-1.127 4.725-20.841-8.105 21.968 3.38zm-1.128 6.543l-20.84-9.923 19.349 17.192 1.491-7.269z" fill="#7C7EFF"/><path d="M646.153 260.705c-.145 0-3.819-.399-8.438-3.271-4.655-2.908-6.401-7.96-6.401-8.759 0-.328.254-.546.545-.546a.56.56 0 01.546.546c.036.545 1.528 5.125 5.856 7.814 4.401 2.726 7.929 3.126 7.965 3.126.291.036.546.291.509.618 0 .291-.254.509-.582.472zm-13.712-12.067s0 .037 0 0c0 .037 0 0 0 0zm36.481 17.156c-6.511-1.308-12.694-3.707-18.477-7.124-4.728-2.835-8.547-7.124-13.385-9.486a.556.556 0 01-.254-.764.557.557 0 01.764-.254c5.019 2.472 8.802 6.76 13.493 9.559 5.638 3.344 11.748 5.707 18.113 6.979 2.328.472 5.129.654 8.257.509.327 0 .582.218.582.545 0 .327-.219.581-.546.581-2.8.109-5.783 0-8.547-.545z" fill="#62BDF3"/><path d="M394.062 462.758s-13.785-24.571-17.131-29.804c-3.346-5.234-12.075-25.988-12.403-26.824-.327-.836 6.002-10.65 4.62-10.977-1.419-.327-2.983 5.197-4.474 4.507-1.491-.654-5.892-13.957-6.765-13.267-1.601 1.236 2.364 8.251 1.527 8.687-.873.436-3.455-7.705-5.128-7.451-1.673.254 3.201 7.487 2.728 8.105-.473.655-5.529-6.179-6.438-4.725-.509.8 4.656 5.961 3.674 6.434-.982.472-5.565-2.835-6.074-1.89-.473.945 4.255 2.289 5.674 4.87 1.418 2.581 3.819 3.707 4.837 8.505 1.018 4.798 2.51 22.135 7.602 30.786 5.128 8.651 16.403 27.805 16.403 27.805l11.348-4.761zm61.105 118.636s-1.128-1.381-1.455-1.89c-.4-.581-1.455-2.399-1.455-2.399s-3.346-6.542-2.837-6.724c.509-.218 1.709.582 2.037.909.363.327.8.69 1.127 1.018.364.327.873.327 1.31-.073.436-.4-.655-2.036-1.164-2.508-1.528-1.49-6.438-4.725-6.947-5.052-.582-.436-4.329-12.831-5.965-16.974-2.437-6.87-4.619-14.03-4.874-14.757l-1.528-31.186-11.639-3.889s1.237 34.602 1.492 36.347c.109.836 7.019 16.283 7.019 16.283 3.892 7.415 7.311 13.921 7.929 15.193 0 0 .837 4.289 1.237 7.088.364 2.762 1.855 5.161 2.073 5.925.037.109.655 2.762 2.583 5.524 1.673 2.363 1.164-.654 1.164-.654s-2.292-4.979-1.855-5.089c.327-.109 1.418 2.69 3.2 5.343.473.691.91 1.345 1.346 1.963 1.128 1.599 2.437 1.381 1.528-.509-.328-.654-.873-1.744-1.382-2.471-.546-.764-.801-1.672-1.164-2.399-.728-1.454-1.273-2.472-1.201-2.472.109 0 .146-.4.655.327.618.836 1.528 2.945 2.546 4.144.582.654 1.673 2.144 1.673 2.144s2.073 2.181 2.219 2.109c.836-.473-.182-2.472-1.091-3.272-.291-.799-1.528-2.326-1.528-2.326s-1.746-3.635-1.237-3.889c.437-.218 6.329 7.633 7.129 7.088.691-.437-.945-2.872-.945-2.872z" fill="#FFAD89"/><path d="M434.325 459.959c.291-6.797-.727-13.521-3.746-19.845-2.619-5.452-9.093-8.542-15.021-8.542-18.768-.036-21.168 24.753-33.098 34.312-3.637 2.908-7.747 5.306-11.166 8.432-12.767 11.631-7.02 33.149 4.692 43.362 8.11 7.088 20.913 11.086 30.915 5.561 5.238-2.871 9.202-7.669 12.039-12.939 4.001-7.451 6.584-16.066 9.457-24.026 2.982-8.468 5.528-17.264 5.928-26.315z" fill="#282828"/><path d="M375.658 678.877s-1.309 9.159-3.601 12.103c-.764.982-2.146 2.254-3.091 4.035-1.419 2.798-.655 6.942.4 9.232.545 1.163-.037 1.163 1.2 1.563 3.637 1.126 7.492-.764 9.056-4.253.873-1.926 1.637-4.543 1.783-7.778.4-8.287 2.982-12.54 2.982-12.54l-8.729-2.362zm39.79 4.179s.801 10.323.146 13.667c-.364 1.781-2.328 5.488-1.419 7.197.91 1.672 1.928 2.108 1.928 2.108l23.496.363c1.273.037.436-.799-.582-1.563-1.673-1.236-3.055-2.072-8.438-4.652-.364-.182-1.637-.982-2.11-1.272-1.164-.727-2.364-1.854-3.346-2.944-1.673-1.89-1.818-10.941-1.818-10.941l-7.857-1.963z" fill="#FFAD89"/><path d="M433.816 545.956s2.946 16.756 1.019 27.733c-1.928 10.976-11.275 112.748-11.275 112.748l-10.366.581s-2.183-42.489-1.783-48.414c.4-5.924 3.456-15.811 3.456-15.811l-1.019-34.311 13.058-45.07 6.91 2.544z" fill="#2D185D"/><path d="M403.337 542.43s-8.147 12.249-10.111 22.39c-1.928 10.141 1.418 41.29-2.328 54.557-2.037 7.196-9.675 18.282-10.839 27.587-1.164 9.305-5.747 33.621-5.747 33.621l10.366 2.035 24.078-60.772 18.877-54.92 4.838-28.278-29.134 3.78z" fill="#45258F"/><path d="M409.957 472.753s-10.803-.69-15.058 3.962c-4.256 4.653 9.493 41.399 10.257 47.288.763 5.924-3.965 21.626-3.965 21.626s25.387 5.088 32.625.291c0 0 .764-42.49 0-46.742-.763-4.217-7.238-21.409-8.802-23.081-1.564-1.635-15.057-3.344-15.057-3.344z" fill="#51FEDD"/><path d="M413.557 458.36s-.073.327-.145.872c-.473 2.581-2.328 11.195-3.601 13.558-1.528 2.871 5.165 11.958 11.639 10.831 1.927-.327-1.637-8.36-1.455-9.232.327-1.636.764-3.853 1.236-6.143.255-1.272.51-2.58.764-3.816.691-3.489 1.237-6.325 1.237-6.325l-9.675.255z" fill="#FFAD89"/><path d="M413.412 459.232c.109-.545.145-.872.145-.872l9.675-.255s-.545 2.836-1.236 6.325c-.255 1.236-.51 2.508-.764 3.78-1.491-.218-3.055-.945-4.619-2.29a11.878 11.878 0 01-3.492-5.198c.109-.545.182-1.09.291-1.49z" fill="#D19369"/><path d="M420.068 436.479s-4.546-.509-7.42 3.162c-2.837 3.671-5.928 15.048 1.164 21.263 7.093 6.179 14.076-.799 15.131-8.251 1.018-7.414 1.418-16.428-8.875-16.174z" fill="#FFAD89"/><path d="M431.016 452.545c-.837 1.635-2.255 2.544-3.165 2.035-.909-.509-.945-2.254-.109-3.926.837-1.635 2.255-2.544 3.164-2.035.91.545.983 2.29.11 3.926z" fill="#FFAD89"/><path d="M420.577 435.28s-6.074 10.831-10.439 11.34c-4.364.509-4.91 6.251-4.91 6.251s1.564-13.266 5.856-15.81c4.292-2.581 9.493-1.781 9.493-1.781z" fill="#282828"/><path d="M380.35 699.703c-5.638 1.018-9.384-2.253-11.348-4.725-1.418 2.799-2.146 6.943-1.091 9.269.946 2.035 3.637 1.962 5.783 2.035 2.255.073 4.001-1.163 5.128-3.126.546-.945 1.055-2.071 1.528-3.453zm48.12-.799c-6.22 1.599-10.803.508-13.385-.509-.655 1.89-1.528 4.216-1.091 5.561.582 1.672 1.382 2.035 2.109 2.035 5.674.146 20.768.364 25.097.4a.7.7 0 00.545-1.163c-1.055-1.272-12.839-6.034-13.275-6.324z" fill="#45258F"/><path d="M411.266 449.31c.364 1.926-.364 3.671-1.6 3.925-1.237.255-2.51-1.09-2.874-3.017-.363-1.926.364-3.671 1.601-3.925 1.236-.255 2.509 1.09 2.873 3.017z" fill="#FFAD89"/><path d="M390.243 454.798s15.24 16.356 17.495 22.935c2.255 6.579-2.219 16.029-8.402 16.429-6.183.399-19.932-29.005-19.932-29.005l10.839-10.359z" fill="#51FEDD"/><path d="M407.556 248.093l-17.203 3.744c-4.147.909-8.22-1.708-9.093-5.852l-1.601-7.378c-.909-4.144 1.71-8.215 5.856-9.087l17.204-3.744c4.146-.908 8.22 1.709 9.093 5.852l1.6 7.379c.909 4.107-1.709 8.178-5.856 9.086z" fill="#F1D35E"/><path d="M381.405 241.987l-7.383 11.922 11.311-4.871-3.928-7.051z" fill="#F1D35E"/><path d="M389.734 238.68l2.874-.691s3.019-3.526 2.91-4.507c-.11-.981-1.164-2.871-.655-3.271.509-.364 1.637-.836 2.691.254.764.8 1.055 4.253 1.455 4.398.255.109 1.891-.254 3.128-.545.8-.182 1.637.073 2.146.691.364.436.364 1.017.036 1.453l-.509.691.655.545c.473.4.545 1.163.145 1.636l-.436.509.436.327c.546.4.655 1.199.182 1.744l-.363.4.109.109c.4.473.4 1.127-.037 1.563l-.4.4-7.638 1.854a4.922 4.922 0 01-2.182.072l-2.801.219c-.291.036-.582-.182-.654-.473l-1.528-6.724c-.109-.255.109-.582.436-.654z" fill="#fff"/><path d="M445.891 112.795c15.421 2.872 26.478 12.867 24.732 22.354-.873 4.725-4.801 8.432-10.438 10.613l3.673 15.12-11.166-13.303c-4.073.509-8.547.4-13.203-.472-15.421-2.872-26.478-12.867-24.732-22.354 1.782-9.45 15.712-14.829 31.134-11.958z" fill="#62BDF3"/><path d="M452.947 133.622c-2.364 4.943-8.293 7.015-13.203 4.652-4.91-2.362-7.019-8.287-4.619-13.194 2.364-4.943 8.293-7.015 13.203-4.652 4.91 2.363 6.983 8.251 4.619 13.194z" fill="#3797DB"/><path d="M438.58 128.461c-1.273 2.617-.145 5.779 2.474 7.051 2.618 1.272 5.783.145 7.056-2.472l-9.53-4.579z" fill="#EFEFEF"/><path d="M686.925 427.211l-3.419.363-1.163-5.452-5.056-.073-1.528-3.925-1.964.763 2.037 5.234 4.801.109 1.2 5.634 5.129-.509-.037-2.144z" fill="#F1D35E"/><path d="M667.249 359.279l-7.965-3.49-1.819 5.489-2.655-.873 2.801-8.396 7.929 3.453 2-6.506 7.311 3.053 3.019-6.397 2.509 1.163-4.146 8.832-6.947-2.907-2.037 6.579z" fill="#51FEDD"/></svg>