<svg width="19" height="18" viewBox="0 0 19 18" fill="none" xmlns="http://www.w3.org/2000/svg"><path d="M9.5.157A8.72 8.72 0 00.781 8.875a8.718 8.718 0 008.719 8.72 8.718 8.718 0 008.719-8.72A8.72 8.72 0 009.5.157zm0 3.867a1.477 1.477 0 110 2.953 1.477 1.477 0 010-2.953zm1.969 8.93a.422.422 0 01-.422.421H7.953a.422.422 0 01-.422-.421v-.844c0-.233.19-.422.422-.422h.422v-2.25h-.422a.422.422 0 01-.422-.422v-.844c0-.233.19-.422.422-.422h2.25c.233 0 .422.19.422.422v3.516h.422c.233 0 .422.189.422.422v.844z" fill="#0369C7"/></svg>