<svg width="1304" height="1115" viewBox="0 0 1304 1115" fill="none" xmlns="http://www.w3.org/2000/svg"><path d="M.49 477.317l41.364-19.487a20 20 0 0117.048 0l32.84 15.472a20.001 20.001 0 0017.048 0l32.84-15.472a20 20 0 0117.047 0l32.841 15.472a20 20 0 0017.047 0l32.84-15.472a20.002 20.002 0 0117.048 0l32.84 15.472a20.002 20.002 0 0017.048 0l32.84-15.472a20.002 20.002 0 0117.048 0l41.364 19.487M.49 506.628l41.365-19.487a20 20 0 0117.047 0l32.84 15.472a20 20 0 0017.048 0l32.84-15.472a20.002 20.002 0 0117.048 0l32.84 15.472a20.002 20.002 0 0017.048 0l32.84-15.472a20 20 0 0117.047 0l32.841 15.472a20 20 0 0017.047 0l32.841-15.472a20 20 0 0117.047 0l41.364 19.487M.49 535.94l41.365-19.487a20 20 0 0117.047 0l32.84 15.472a20 20 0 0017.048 0l32.84-15.472a20.002 20.002 0 0117.048 0l32.84 15.472a20.002 20.002 0 0017.048 0l32.84-15.472a20 20 0 0117.047 0l32.841 15.472a20 20 0 0017.047 0l32.841-15.472a20 20 0 0117.047 0l41.364 19.487M.49 565.251l41.365-19.487a20 20 0 0117.047 0l32.84 15.471a20 20 0 0017.048 0l32.84-15.471a20.002 20.002 0 0117.048 0l32.84 15.471a20.002 20.002 0 0017.048 0l32.84-15.471a20 20 0 0117.047 0l32.841 15.471a20 20 0 0017.047 0l32.841-15.471a20 20 0 0117.047 0l41.364 19.487M.49 594.562l41.365-19.487a20 20 0 0117.047 0l32.84 15.472a20 20 0 0017.048 0l32.84-15.472a20.002 20.002 0 0117.048 0l32.84 15.472a20.002 20.002 0 0017.048 0l32.84-15.472a20 20 0 0117.047 0l32.841 15.472a20 20 0 0017.047 0l32.841-15.472a20 20 0 0117.047 0l41.364 19.487M.49 623.874l41.365-19.488a20 20 0 0117.047 0l32.84 15.472a20 20 0 0017.048 0l32.84-15.472a20.002 20.002 0 0117.048 0l32.84 15.472a20.002 20.002 0 0017.048 0l32.84-15.472a20 20 0 0117.047 0l32.841 15.472a20 20 0 0017.047 0l32.841-15.472a20 20 0 0117.047 0l41.364 19.488M.49 653.185l41.365-19.487a19.993 19.993 0 0117.047 0l32.84 15.471a20 20 0 0017.048 0l32.84-15.471a19.995 19.995 0 0117.048 0l32.84 15.471a20.002 20.002 0 0017.048 0l32.84-15.471a19.992 19.992 0 0117.047 0l32.841 15.471a20 20 0 0017.047 0l32.841-15.471a19.992 19.992 0 0117.047 0l41.364 19.487M.49 682.496l41.365-19.487a20 20 0 0117.047 0l32.84 15.471a20 20 0 0017.048 0l32.84-15.471a20.002 20.002 0 0117.048 0l32.84 15.471a20.002 20.002 0 0017.048 0l32.84-15.471a20 20 0 0117.047 0l32.841 15.471a20 20 0 0017.047 0l32.841-15.471a20 20 0 0117.047 0l41.364 19.487M.49 711.807l41.365-19.487a20 20 0 0117.047 0l32.84 15.472a20 20 0 0017.048 0l32.84-15.472a20.002 20.002 0 0117.048 0l32.84 15.472a20.002 20.002 0 0017.048 0l32.84-15.472a20 20 0 0117.047 0l32.841 15.472a20 20 0 0017.047 0l32.841-15.472a20 20 0 0117.047 0l41.364 19.487M.49 741.119l41.365-19.488a20 20 0 0117.047 0l32.84 15.472a20 20 0 0017.048 0l32.84-15.472a20.002 20.002 0 0117.048 0l32.84 15.472a20.002 20.002 0 0017.048 0l32.84-15.472a20 20 0 0117.047 0l32.841 15.472a20 20 0 0017.047 0l32.841-15.472a20 20 0 0117.047 0l41.364 19.488" stroke="#FFF0B5"/><path d="M796.164 6.11a40 40 0 0139.996 0l447.59 258.386a40 40 0 0120.01 34.642v516.764a40.002 40.002 0 01-20.01 34.642L836.16 1108.93a40.018 40.018 0 01-39.996 0L348.57 850.544a40 40 0 01-20.002-34.642V299.138a40 40 0 0120.002-34.642L796.164 6.109z" fill="#F1D35E" fill-opacity=".1"/></svg>