<svg width="69" height="68" viewBox="0 0 69 68" fill="none" xmlns="http://www.w3.org/2000/svg"><path d="M9.521 54.163c0 .416.168.816.467 1.11.3.295.705.46 1.127.46h3.586c.356 0 .7-.117.981-.332.28-.216.48-.517.565-.857l2.488-9.803H9.52v9.422zm10.625-10.85c5.253.787 16.816 4.85 24.438 11.744v-41.57c-7.623 6.894-19.185 10.957-24.438 11.745v18.08zM50.428 7.054a4.287 4.287 0 00-3.004 1.227 4.162 4.162 0 00-1.246 2.96v46.063c0 1.11.448 2.175 1.245 2.96a4.283 4.283 0 003.005 1.227 4.282 4.282 0 003.005-1.226 4.156 4.156 0 001.245-2.961V11.24a4.16 4.16 0 00-1.246-2.96 4.287 4.287 0 00-3.004-1.227zM9.521 25.374h9.032V43.17H9.52V25.374zm-8.5 4.711v8.375a4.681 4.681 0 001.402 3.33 4.823 4.823 0 003.38 1.38h2.125V25.375H5.803a4.823 4.823 0 00-3.38 1.381 4.681 4.681 0 00-1.402 3.33zm65.344 2.617h-5.312c-.423 0-.828.166-1.127.46a1.559 1.559 0 00-.467 1.11c0 .417.168.816.467 1.11.299.295.704.46 1.127.46h5.312c.423 0 .828-.165 1.127-.46a1.552 1.552 0 000-2.22 1.606 1.606 0 00-1.127-.46zm-7.934-8.2c.239 0 .474-.054.69-.156l4.788-2.268c.38-.18.673-.503.813-.896a1.55 1.55 0 00-.067-1.2 1.586 1.586 0 00-.91-.801 1.615 1.615 0 00-1.217.066l-4.788 2.269a1.583 1.583 0 00-.746.733 1.55 1.55 0 00.443 1.91c.282.222.633.343.995.343h-.001zm5.478 21.964l-4.788-2.268a1.615 1.615 0 00-1.213-.06 1.586 1.586 0 00-.904.8 1.55 1.55 0 00-.07 1.194c.138.392.428.714.806.897l4.788 2.268c.38.18.819.204 1.217.067.4-.138.726-.426.91-.802a1.55 1.55 0 00.067-1.2 1.578 1.578 0 00-.813-.896z" fill="#0092E9"/></svg>