<svg width="843" height="835" viewBox="0 0 843 835" fill="none" xmlns="http://www.w3.org/2000/svg"><path d="M401.878 23.638a20 20 0 0119.87 0l336.641 192.681a20 20 0 0110.065 17.358V618.74a20 20 0 01-10.065 17.358L421.748 828.779a20 20 0 01-19.87 0L65.238 636.098a20 20 0 01-10.066-17.358V233.677a20 20 0 0110.066-17.358l336.64-192.681z" fill="#51FEDD"/><path d="M424.693 6.535a20 20 0 0119.998 0l333.605 192.583a19.998 19.998 0 0110.001 17.321v385.162a20 20 0 01-10.001 17.321L444.691 811.505a20 20 0 01-19.998 0L91.088 618.922a20.001 20.001 0 01-10.001-17.321V216.439a19.999 19.999 0 0110-17.321L424.694 6.535z" fill="#EBF5FF"/><path d="M534.74 151.763c4.768 0 8.634-3.862 8.634-8.625 0-4.764-3.866-8.625-8.634-8.625-4.768 0-8.634 3.861-8.634 8.625 0 4.763 3.866 8.625 8.634 8.625zm6.009 16.434c-.525-2.506-.816-5.187-1.691-7.635-.759-2.098-3.968-1.457-3.851.816.175 2.739 1.05 5.537 1.634 8.217.233 1.108 1.691 1.574 2.625 1.282 1.225-.466 1.517-1.573 1.283-2.68zm14.875-10.723c-2.859-1.69-5.367-3.788-8.051-5.769-2.042-1.574-4.317 1.107-2.625 2.972 2.45 2.681 5.659 4.72 8.751 6.585.992.583 2.333 0 2.8-.932.583-1.108.117-2.273-.875-2.856zm-5.425-15.502c-.641.525-.758 1.282-.35 1.981.992 1.749 3.442 1.69 5.192 1.632 1.809-.058 3.676-.408 5.368-1.049 2.566-.874 1.166-4.837-1.401-3.963-5.017 1.749-6.942-.116-8.809 1.399zm-2.798-16.784c-2.509 3.672-4.609 4.954-4.259 6.935.175 1.166 1.109 1.749 2.275 1.516 1.342-.292 2.101-1.749 2.917-2.739.759-.991 1.517-1.924 2.217-2.973.642-.932.7-2.156-.233-2.972-.7-.641-2.275-.699-2.917.233zm-9.801-.641c-.817-2.214-.992-3.03-2.042-4.079-.933-.874-2.8-.35-2.975.991-.175 1.573.175 2.098 1.05 4.487a2.178 2.178 0 002.683 1.282c1.051-.408 1.692-1.632 1.284-2.681zm-10.619 5.362c-3.617-2.739-4.375-3.555-5.775-3.38-.817.116-1.75.874-1.575 1.806.35 1.749 1.341 2.215 4.667 4.663.875.641 2.1.699 2.917-.175.7-.816.641-2.215-.234-2.914zm-14.585 12.646c-1.458.757-.875 3.205.7 3.438 1.459.175 2.042-.058 9.276-1.34 1.109-.175 2.042-.991 1.926-2.215-.059-1.049-1.109-2.156-2.217-1.923-7.468 1.282-8.226 1.282-9.685 2.04zm11.318 11.83c-3.968 3.846-4.551 3.147-6.068 5.478-.7 1.049.467 2.797 1.692 2.564 1.575-.291 2.042-.583 4.084-2.215 1.225-.932 2.392-1.981 3.5-3.03.817-.816.584-2.273-.233-2.972-.934-.874-2.159-.641-2.975.175z" fill="#F1D35E"/><g clip-path="url(#clip0)"><path d="M137.594 558.926s-54.202-82.11 5.11-171c52.633-78.856 135.653-16.139 182.708-96.389 64.148-109.444 384.332-66.71 343.787 101.67-19.615 81.476 89.064 84.454 48.625 165.888l-580.23-.169z" fill="#fff"/><path d="M542.092 394.876s-9.797-12.928.615-20.11c0 0 7.507-3.908 13.381-3.19 0 0-9.246 13.456-6.616 14.998 2.608 1.563 9.203-15.716 9.203-15.716s16.562-.571 21.715 2.302c0 0-14.802 10.604-11.876 11.471 2.927.866 18.831-9.443 18.831-9.443s15.162 3.549 13.763 12.822c-1.4 9.274-6.871 11.809-9.161 11.429-2.312-.402-15.565-6.401-15.968-4.521-.424 1.88 7.38 8.576 13.084 9.231 0 0-11.557 11.196-18.513 7.33-6.976-3.865-7.231-9.337-11.578-11.66-4.347-2.324-8.164-2.556-6.447-.359 1.718 2.197 9.691 4.71 11.982 9.379 2.269 4.668 4.389 7.858-2.969 6.274-7.359-1.585-19.107-7.753-19.234-13.985l-.212-6.252z" fill="#3797DB"/><path d="M593.558 387.757s-41.521-4.183-51.466 7.098c0 0-2.418 5.935-9.013 11.069l-1.145 2.577s7.698-7.119 10.306-7.436c-.021.042-3.138-14.914 51.318-13.308z" fill="#3797DB"/><path d="M533.058 405.945s-9.351 6.02-10.709 17.744l1.612.253s3.626-11.977 9.076-16.413c5.471-4.457.021-1.584.021-1.584z" fill="#3797DB"/><path d="M494.061 363.971s-21.715-12.104-11.579-28.538c0 0 8.101-10.098 16.795-12.675 0 0-4.622 24.504 0 25.074 4.623.571 3.181-27.672 3.181-27.672s22.86-10.964 31.83-10.098c0 0-14.187 23.934-9.543 23.343 4.623-.571 20.549-24.8 20.549-24.8s23.432-4.331 27.207 9.506c3.753 13.836-2.312 20.765-5.79 21.631-3.477.866-25.764.57-25.171 3.464.573 2.873 15.629 7.499 24.026 4.901 0 0-9.267 22.772-21.417 21.631-12.151-1.162-15.926-8.64-23.433-9.231-7.528-.57-13.02 1.436-9.267 3.464 3.754 2.028 16.498.655 22.563 5.809 6.086 5.155 11.006 8.323-.297 10.626-11.281 2.302-31.554.866-35.604-7.774l-4.05-8.661z" fill="#62BDF3"/><path d="M561.771 322.441s-60.776 19.603-67.71 41.509c0 0 .297 9.802-5.789 21.04v4.33s6.362-14.702 9.839-16.73c0 .021-13.614-19.012 63.66-50.149z" fill="#3797DB"/><path d="M488.272 385.011s-9.373 14.174-4.029 31.432l2.417-.654s-2.333-19.012 2.566-28.56c4.898-9.569-.954-2.218-.954-2.218z" fill="#3797DB"/><path d="M379.593 370.161s25.256-10.647 16.158-29.87c0 0-7.655-12.041-16.858-15.927 0 0 2.099 27.419-3.054 27.482-5.153.063-.127-30.714-.127-30.714s-23.729-14.766-33.653-14.893c0 0 12.638 27.926 7.634 26.743-5.005-1.183-19.51-29.658-19.51-29.658s-25.171-7.562-30.96 7.14c-5.81 14.702.021 23.025 3.711 24.398 3.69 1.373 28.161 3.739 27.165 6.823-.976 3.084-18.046 6.338-26.91 2.472 0 0 7.379 26.067 20.845 26.278 13.465.211 18.491-7.562 26.804-7.288 8.312.275 14.102 3.148 9.733 4.901-4.368 1.754-18.152-1.267-25.447 3.634-7.294 4.9-13.062 7.794-.975 11.681 12.087 3.887 34.459 4.753 39.951-4.225l5.493-8.977z" fill="#62BDF3"/><path d="M310.441 316.505s64.211 28.814 69.152 53.677c0 0-1.506 10.71 3.774 23.764l-.53 4.732s-5.195-16.878-8.758-19.518c.021 0 17.24-19.202-63.638-62.655z" fill="#3797DB"/><path d="M383.389 393.925s8.546 16.667.593 34.939l-2.565-.992s4.877-20.554.657-31.623c-4.199-11.069 1.315-2.324 1.315-2.324zm-55.601 38.045c-4.453-6.422-4.962-12.379-4.962-12.379s12.341-8.83 5.068-18.124c0 0-5.62-5.577-11.07-6.57 0 0 4.496 14.576 1.718 15.23-2.778.676-3.838-16.582-3.838-16.582s-14.632-5.091-20.018-3.95c0 0 10.263 13.561 7.4 13.54-2.841-.042-14.186-13.667-14.186-13.667s-14.526-1.035-15.862 7.626c-1.336 8.661 2.842 12.442 5.005 12.738 2.163.295 15.692-1.416 15.522.38-.148 1.795-8.97 5.619-14.25 4.605 0 0 7.189 13.203 14.483 11.682 7.295-1.521 9.076-6.338 13.593-7.204 4.538-.866 8.016-.021 5.853 1.479-2.142 1.479-9.967 1.521-13.317 5.07-3.329 3.549-6.107 5.809.912 6.443 7.019.633 19.212-1.627 21.078-7.161.085-.233.149-.465.233-.698a3.551 3.551 0 01-.233.698c1.357.591 3.647 3.886 5.259 6.421.233.444.615 1.035 1.145 1.838.212.359.403.676.53.887 3.096 5.746 2.99 16.287 2.99 16.287l1.506.232c2.121-10.857-4.559-18.821-4.559-18.821z" fill="#3797DB"/><path d="M245.255 284.312c-.127-.655-1.697-7.795-12.745-6.569 0 0 5.514-.148 6.786 2.091 0 0-4.114-2.387-6.977-1.014-2.862 1.373-3.859 6.865-3.626 8.597.234 1.733 2.715 7.035 4.687 7.225.742.084 1.569-.085 2.311-.338a28.816 28.816 0 00-1.103 2.852c-3.074 9.611 2.715 17.744 6.299 16.223 2.29-.972 3.562 3 3.562 3l20.442-22.033c-.021 0-11.069-16.308-19.636-10.034z" fill="#282828"/><path d="M271.889 549.673l-4.962 1.838s-21.588-29.848-24.259-56.084c-.467-4.69-.319-9.231.721-13.414 0 0-.213-1.204-.573-3.317-.17-.992-.382-2.175-.615-3.548-.7-4.014-1.675-9.485-2.778-15.738-2.545-14.364-5.831-32.742-8.397-46.241l1.336-.422 14.504-4.668 2.99-9.485 10.794-2.831s2.417 4.69 4.559 26.891a164.91 164.91 0 011.039 9.612c.848 10.625.912 23.807-1.018 38.889a205.873 205.873 0 01-1.887 11.935c-.572 3-.657 7.098-.424 11.788 1.06 21.441 8.97 54.795 8.97 54.795z" fill="#45258F"/><path d="M266.227 432.266l-23.432 46.43c-.169-.992-.382-2.175-.615-3.548-.7-4.014-1.675-9.485-2.778-15.738-2.544-14.364-5.831-32.742-8.397-46.241l1.336-.422 14.504-4.668 2.99-9.485 10.794-2.831s2.418 4.69 4.559 26.891a164.91 164.91 0 011.039 9.612z" fill="#2D185D"/><path d="M255.9 401.72l-.551-4.626c-9.097 2.408-33.378-6.718-33.378-6.718s-8.8 7.711-7.655 26.194c.572 9.02 1.59 47.361 2.672 58.704.381 4.119.721 7.035.869 8.218v.021c.043.359-.085.697-.254 1.014a51.386 51.386 0 00-3.966 8.323c-10.56 28.052 1.633 62.611 1.633 62.611l3.16-1.267s6.934-38.446 12.575-55.43c.954-2.873 1.866-5.154 2.714-6.506 2.46-3.95 4.729-10.393 6.786-18.04 3.902-14.491 7.04-33.334 9.139-47.867.297-.042 6.256-24.631 6.256-24.631z" fill="#45258F"/><path d="M270.574 364.563c.17.19.361.359.552.528 7.761 7.203 18.237 13.583 23.835 14.998 3.69.929 11.812-.317 18.555-1.69 4.496-.887 8.397-1.859 10.009-2.239.509-.127.806-.211.806-.211l-.7-4.521s-4.05-.317-9.055-.887c-6.998-.824-15.862-2.07-18.131-3.422-5.259-3.127-14.504-16.203-21.926-24.42-.382-.443-.764-.887-1.145-1.31-.276-.316-.552-.612-.827-.908-.064-.063-.128-.148-.212-.211-.34-.317-.637-.634-.912-.887-.022-.043-.064-.064-.106-.085-1.315-1.31-3.627-2.915-3.627-2.915-1.293-.739-2.353-.887-3.117-.253 0 0-.975.95-1.929 2.725-.213.38-.403.781-.594 1.225-.149.253-.233.507-.318.76-.636 1.648-1.082 3.718-.997 6.126.064 1.817.403 3.845 1.23 6.063 1.251 3.633 4.538 7.689 8.609 11.534z" fill="#FFAD89"/><path d="M263.81 345.445c-2.63 1.711-5.917 3.084-10.009 3.908-15.353 3.084-20.824-9.928-22.775-18.8 2.12-1.12 4.071-1.331 5.216-1.437a46.198 46.198 0 013.223-.169c1.739-1.267 4.454-6.527 5.259-14.808l.721.212 11.918 3.612s-.657 3.781-1.039 7.372c-.297 2.81-.403 5.492.127 6.168.933.233 1.485.381 1.485.381v.021c.148.274 3.477 6.084 5.874 13.54z" fill="#FFAD89"/><path d="M269.153 354.994a9.32 9.32 0 01-.254.971c-2.693 8.978-4.878 44.826-4.878 44.826 1.421 4.478-24.725 5.407-39.166 3.337-5.238-.76-8.949-1.901-9.204-3.422-2.587-5.788 3.732-16.624 7.38-22.117.466-.697.848-1.415 1.166-2.176a13.704 13.704 0 001.145-6.041c-.106-2.852-.36-5.598-.657-8.196-.551-4.88-1.315-9.147-1.697-12.147.764-.76 1.506-1.457 2.185-2.112 1.039-1.014 1.972-1.965 2.608-2.894.7-.993 1.103-1.986 1.018-3a15.088 15.088 0 00-.403-2.344c-.085-.359-.191-.74-.297-1.099-1.166-3.823-3.329-7.14-3.329-7.14 3.902-2.281 11.43-2.345 11.43-2.345s.042.402.148 1.078c.361 2.683 1.4 9.59 2.46 10.752 1.315 1.479 22.117 5.725 22.838 3.38.721-2.324-3.583-12.062-3.753-12.442v-.021c6.659 1.584 9.564 3.358 9.691 3.464-3.584 3.211 3.457 11.111 1.569 19.688z" fill="#51FEDD"/><path d="M257.342 317.984s-.657 3.781-1.039 7.372c-6.786-.866-9.755-7.414-10.9-10.984l11.939 3.612z" fill="#D19369"/><path d="M259.272 321.617s-16.138-1.352-15.141-11.343c.996-9.992-.424-16.9 9.924-16.456 10.348.444 11.96 4.436 12.448 7.858.487 3.401-3.011 20.026-7.231 19.941z" fill="#FFAD89"/><path d="M266.588 296.057c-2.185-3.253-4.136-2.788-5.281-1.986-8.312-5.703-14.716.867-14.716.867-1.803 7.055-7.401 10.646-7.401 10.646s2.757 2.091 9.691 1.035c2.12-.317 4.114-1.605 5.853-3.232-3.202 4.31-7.253 7.225-7.253 7.225 8.461-2.915 12.83-13.794 13.275-14.935.891.972 2.651 3.084 3.054 5.006.551 2.62.381 7.901 1.929 7.88 0 .021 4.135-7.626.849-12.506z" fill="#282828"/><path d="M338.56 370.816c-1.612 1.521-3.244 5.365-8.207 5.281-3.541-.022-7.125.359-8.864.57-.678.127-1.06.169-1.06.169l-.17-5.598s.064 0 .234-.021c1.208-.19 7.294-1.12 9.712-2.704 2.714-1.817 9.034-.127 9.034-.127s.954.93-.679 2.43z" fill="#FFAD89"/><path d="M233.676 557.996h-25.044s-.594-3.802.7-6.696c1.251-2.767 3.223-4.035 2.757-7.373 1.59 1.627 4.177 3.465 7.803 2.979.446.718 2.863 4.542 4.348 5.619 1.632 1.162 8.927.739 9.436 5.471zm53.757 0h-25.044s-.933-3.971.7-6.696c1.463-2.387.89-3.76-.191-5.746 1.145.465 2.608.887 4.22.782 1.251-.064 2.566-.634 3.732-1.31 1.081 1.225 5.683 6.443 7.125 7.457 1.675 1.204 8.97.781 9.458 5.513z" fill="#2D185D"/><path d="M255.434 315.829s.233 1.331 3.499 1.331c0 0 2.735 0 2.756-1.436-.021 0-2.608-1.183-6.255.105z" fill="#fff"/><path d="M228.269 379.349c-.997 6.253-5.535 18.801-3.414 24.779-5.238-.76-8.949-1.901-9.204-3.422-2.587-5.788 3.732-16.625 7.38-22.117.466-.697.848-1.415 1.166-2.176a13.704 13.704 0 001.145-6.041c-.106-2.852-.36-5.598-.657-8.196.021.042 4.644 10.54 3.584 17.173z" fill="#00BACD"/><path d="M263.725 337.186c.169 5.556 4.198 20.807 5.174 18.8 1.102-2.302 5.322-11.026 7.316-11.343-.106-.402-8.249-9.379-8.61-9.274 0 0-2.205.676-3.88 1.817z" fill="#51FEDD"/><path d="M225.321 416l-4.156 2.746s-1.06-1.31-2.714-3.401a50.671 50.671 0 01-.764-1.014c-1.314-1.69-2.841-3.76-4.516-6.02l-.022-.021c-2.799-3.929-5.895-8.387-8.249-12.421-1.633-2.852-2.905-5.514-3.541-7.584a5.35 5.35 0 01-.148-.634c-1.23-5.281 1.017-15.779 4.58-26.003.488-1.416.997-2.81 1.506-4.162 1.887-5.027 4.029-9.738 6.149-13.54 1.251-2.282 2.502-4.289 3.711-5.788.424-.529.806-1.035 1.23-1.458l.679-.739c2.502.211 7.74 1.204 11.62 5.661-.063.232-.127.465-.212.718-1.569 5.049-4.008 11.238-6.51 17.322-1.378 3.338-2.778 6.654-3.986 9.759a182.005 182.005 0 00-2.121 5.281c-1.188 3.148-2.078 5.746-2.439 7.584-.233 1.183.106 3.422.742 6.168 1.103 4.795 3.203 11.238 5.153 16.709a351 351 0 002.248 6.169 720.829 720.829 0 011.76 4.668z" fill="#FFAD89"/><path d="M227.145 357.402c-4.156-6.232-16.053-8.915-16.053-8.915 6.722-21.23 24.344-19.265 24.344-19.265s-6.425 22.075-8.291 28.18z" fill="#51FEDD"/><path d="M221.165 418.746s1.081 1.605 1.209 2.767c.127 1.162 1.166 4.986 2.502 6.19 1.336 1.225 4.39 3.654 4.814 3.274.424-.359 1.654-3.232.509-5.26-.509-.908-1.209-3.464-2.142-4.077-1.124-.739-2.757-5.661-2.757-5.661l-4.135 2.767z" fill="#FFAD89"/><path d="M225.342 416.613s3.308 1.668 3.754 2.999c.445 1.331 2.29 4.035 2.099 4.352-.212.338-3.075-1.5-4.05-3.148-.976-1.647-1.803-4.203-1.803-4.203z" fill="#FFAD89"/><path d="M303.973 401.065l121-72.16a21.202 21.202 0 0121.672 0l121 72.16v117.619l-263.672-13.16V401.065z" fill="#00BACD"/><path d="M544.933 348.952h-218.27v187.92h218.27v-187.92z" fill="#fff"/><path d="M567.645 400.748v157.248H303.973V400.748l131.836 78.624 131.836-78.624z" fill="#51FEDD"/><path d="M303.973 557.996l120.767-86.25a19.04 19.04 0 0122.138 0l120.767 86.25H303.973z" fill="#00BACD"/><path d="M476.057 374.998h-79.585c-1.145 0-2.099-.951-2.099-2.091 0-1.141.954-2.092 2.099-2.092h79.585c1.145 0 2.1.951 2.1 2.092 0 1.14-.955 2.091-2.1 2.091zm20.506 8.386H375.987c-1.145 0-2.099-.95-2.099-2.091 0-1.141.954-2.091 2.099-2.091h120.576a2.1 2.1 0 012.099 2.091 2.1 2.1 0 01-2.099 2.091zm-15.649 26.046h-87.241a1.53 1.53 0 01-1.526-1.521c0-.823.678-1.521 1.526-1.521h87.241a1.53 1.53 0 011.526 1.521c0 .845-.678 1.521-1.526 1.521zm-78.482 7.922h-24.599a1.531 1.531 0 01-1.527-1.521c0-.824.679-1.521 1.527-1.521h24.599a1.53 1.53 0 011.526 1.521c0 .824-.699 1.521-1.526 1.521zm37.11 0h-29.731a1.53 1.53 0 01-1.526-1.521 1.53 1.53 0 011.526-1.521h29.731c.827 0 1.527.676 1.527 1.521-.022.824-.7 1.521-1.527 1.521zm57.212 0h-51.381a1.531 1.531 0 01-1.527-1.521c0-.824.679-1.521 1.527-1.521h51.381c.827 0 1.527.676 1.527 1.521a1.53 1.53 0 01-1.527 1.521zm-57.022 9.189h-47.797a1.531 1.531 0 01-1.527-1.521c0-.824.679-1.521 1.527-1.521h47.797c.827 0 1.527.676 1.527 1.521-.021.845-.7 1.521-1.527 1.521zm42.921 0h-37.64a1.531 1.531 0 01-1.527-1.521c0-.824.679-1.521 1.527-1.521h37.64c.827 0 1.527.676 1.527 1.521-.021.845-.7 1.521-1.527 1.521zm-29.498 18.695c-2.884 2.387-5.958 4.351-9.182 6.168.276-.845.509-1.753.467-2.535-.064-1.098-.933-1.563-1.803-2.028a5.718 5.718 0 01-.615-.359c.34-.338.509-.781.297-1.288-.36-.824-1.399-.697-1.76.063a1.59 1.59 0 00-.127.422c-.149-.084-.255-.147-.339-.274a56.985 56.985 0 001.505-3.021c.106-.232-.021-.507-.212-.655-.763-.57-1.824-.38-2.439.338-.742.866-.551 2.176-.19 3.148a1.5 1.5 0 00.084.211 43.06 43.06 0 01-2.205 3.549 1.089 1.089 0 00-.233-.211c-.212-.191-.424-.465-.615-.74.36-.929.594-1.922.678-2.957.043-.465-.424-.676-.805-.549-1.061.401-1.633 1.478-1.506 2.577.042.38.17.739.339 1.077a9.662 9.662 0 01-.848 1.5c-.212.317-.064.634.191.782-.339 1.161-.827 2.344-1.612 3.168-.657.676-1.887 1.204-2.672.38-.509-.507-.572-1.373-.636-2.049-.169-1.668-.297-3.401-.233-5.069.021-.803.106-1.606.382-2.345.169-.465.403-1.183.636-.359.106.401-.043 1.014-.085 1.415-.064.718 1.039.803 1.124.084.085-.844.466-2.598-.488-3.126-.784-.443-1.527.19-1.887.845-1.315 2.366-.785 5.598-.594 8.154.148 2.049.933 4.542 3.541 3.908 2.46-.613 3.372-3.697 3.945-5.83a.516.516 0 00-.022-.359c0-.022.022-.043.022-.043l.318.317c.148.127.275.275.424.402-.255.359-.53.718-.785 1.056-.148.19-.106.507.043.676.827.993 2.311.253 2.29-.972 0-.275-.085-.528-.191-.76a44.694 44.694 0 002.184-3.444c.361.338.806.571 1.336.528.043 0 .085 0 .106-.021.297.296.636.55.976.74.318.169.678.295.975.528.53.443.382.929.255 1.542-.149.802-.403 1.626-.658 2.408-1.124.634-2.226 1.457-2.608 2.746-.339 1.183-.042 2.429.975 3.148.297.211.7.042.849-.275a55.33 55.33 0 001.696-4.753.396.396 0 00.043-.148c.996-.57 2.035-1.056 3.011-1.648a58.58 58.58 0 007.422-5.217c.53-.465-.212-1.31-.764-.845zm-13.593-1.479c0-.443.234-1.267.743-1.246-.234.507-.467.993-.721 1.5-.022-.106-.022-.169-.022-.254zm1.421 12.886c-.466-.887.212-1.965.976-2.683a97.551 97.551 0 01-.976 2.683z" fill="#51FEDD"/><path d="M173.283 505.545c-1.272 0-2.502-.021-3.669-.063-.127 0-.233-.106-.233-.254 0-.127.106-.232.255-.232 1.166.042 2.396.042 3.647.063.127 0 .233.106.233.254.021.105-.106.232-.233.232zm3.668-.042a.235.235 0 01-.233-.233c0-.126.106-.253.233-.253 1.167-.021 2.397-.042 3.669-.084.149-.022.255.105.255.232s-.106.253-.234.253c-1.272.043-2.523.064-3.69.085zm-10.984-.169c-1.315-.085-2.545-.169-3.669-.296-.127-.021-.233-.127-.212-.274.021-.127.128-.233.276-.212 1.124.127 2.354.212 3.626.296.127 0 .233.127.233.253-.021.127-.127.233-.254.233zm18.3-.064a.234.234 0 01-.233-.232c0-.127.106-.253.233-.253 1.167-.064 2.397-.127 3.648-.19.127 0 .254.084.254.232 0 .127-.085.253-.233.253-1.23.064-2.481.127-3.669.19.022 0 .022 0 0 0zm7.338-.422a.235.235 0 01-.234-.232c0-.127.085-.254.234-.254 1.208-.084 2.417-.169 3.647-.253.127 0 .254.084.254.232 0 .127-.084.254-.233.254l-3.668.253zm-32.912-.317h-.042a25.447 25.447 0 01-3.584-.866.228.228 0 01-.148-.296.23.23 0 01.297-.148c1.018.317 2.205.613 3.52.845a.24.24 0 01.191.275.23.23 0 01-.234.19zm40.206-.232a.235.235 0 01-.233-.233.223.223 0 01.212-.253l3.648-.317c.127-.021.254.085.275.211.021.127-.085.254-.212.275-1.251.106-2.46.211-3.69.317.022 0 0 0 0 0zm7.295-.655c-.127 0-.233-.085-.233-.211-.021-.127.085-.254.212-.275 1.209-.127 2.417-.232 3.647-.359.128-.021.255.084.276.211.021.127-.085.254-.212.275-1.23.127-2.439.253-3.647.359h-.043zm7.295-.761c-.127 0-.233-.084-.233-.211-.022-.127.084-.253.212-.274 1.208-.127 2.417-.254 3.647-.402.127-.021.255.085.276.211.021.127-.085.254-.212.275-1.23.127-2.439.275-3.648.401h-.042zm-61.645-.76a.404.404 0 01-.149-.042c-.699-.507-1.208-1.099-1.526-1.732a14.53 14.53 0 01-.552-1.373c-.042-.127.022-.275.17-.296.127-.042.276.021.297.169.127.422.318.866.509 1.309.254.55.721 1.078 1.357 1.543a.263.263 0 01.064.337c-.022.064-.106.085-.17.085zm68.94-.042c-.128 0-.234-.085-.234-.211-.021-.127.085-.254.212-.275 1.209-.148 2.418-.275 3.648-.423.127-.021.254.085.276.212.021.126-.085.253-.213.274-1.208.148-2.438.296-3.647.423h-.042zm7.273-.887c-.127 0-.233-.085-.233-.212-.021-.126.085-.253.212-.274a213.87 213.87 0 003.626-.465c.127-.021.255.084.276.211.021.127-.085.254-.212.275-1.209.148-2.418.317-3.626.465h-.043zm7.231-.93c-.127 0-.233-.084-.233-.211-.021-.127.085-.254.212-.275 1.209-.169 2.418-.317 3.626-.486.128-.021.255.085.276.212.021.126-.085.253-.212.274-1.209.169-2.418.317-3.626.486h-.043zm7.274-.972c-.127 0-.233-.084-.233-.211-.022-.127.084-.253.212-.274l3.626-.507a.24.24 0 01.276.211c.021.127-.064.253-.213.274l-3.626.507h-.042zm7.273-1.035c-.127 0-.233-.084-.233-.211-.021-.127.064-.253.212-.275 1.209-.169 2.418-.338 3.626-.528a.24.24 0 01.276.212.239.239 0 01-.212.274c-1.209.169-2.417.359-3.626.528h-.043zm7.232-1.056c-.128 0-.234-.084-.234-.211a.24.24 0 01.212-.275c1.209-.19 2.418-.359 3.627-.549a.239.239 0 01.275.211.239.239 0 01-.212.275c-1.209.19-2.417.359-3.626.549h-.042zm7.252-1.077c-.127 0-.212-.085-.233-.211-.022-.127.063-.254.212-.275 1.208-.19 2.417-.38 3.626-.549a.24.24 0 01.276.211c.021.127-.064.253-.212.275-1.209.19-2.418.38-3.627.549h-.042zm-114.68-.571h-.043c-.127-.021-.212-.147-.191-.295.234-1.162.785-2.282 1.633-3.317a.24.24 0 01.339-.042.237.237 0 01.043.338c-.806.972-1.315 2.028-1.527 3.105-.042.148-.148.211-.254.211zm121.932-.57c-.127 0-.212-.084-.233-.211a.24.24 0 01.212-.275l3.626-.57a.24.24 0 01.276.211.24.24 0 01-.212.275c-1.188.19-2.396.38-3.626.57h-.043zm7.231-1.141c-.127 0-.212-.084-.233-.211-.021-.127.064-.253.212-.275 1.209-.19 2.418-.401 3.626-.591a.24.24 0 01.276.19.24.24 0 01-.191.275c-1.187.19-2.396.401-3.626.591-.042.021-.064.021-.064.021zm7.232-1.183c-.128 0-.212-.084-.234-.211a.238.238 0 01.191-.274c1.23-.212 2.418-.402 3.605-.592a.24.24 0 01.276.19.24.24 0 01-.191.275c-1.188.19-2.396.401-3.605.591-.021.021-.021.021-.042.021zm7.231-1.204c-.127 0-.212-.084-.234-.211a.24.24 0 01.191-.275c1.23-.211 2.439-.401 3.605-.612a.24.24 0 01.276.19.24.24 0 01-.191.275c-1.187.211-2.396.401-3.605.612-.021.021-.042.021-.042.021zm7.231-1.246a.246.246 0 01-.233-.211.238.238 0 01.19-.275c1.23-.211 2.439-.422 3.605-.634a.24.24 0 01.276.191.239.239 0 01-.191.274c-1.166.211-2.375.423-3.605.634-.021.021-.042.021-.042.021zm-146.574-.296a.224.224 0 01-.191-.105c-.085-.106-.042-.254.064-.338a22.334 22.334 0 013.202-1.838c.127-.064.276 0 .318.105.064.127 0 .275-.106.317a22.666 22.666 0 00-3.138 1.817c-.064.042-.106.042-.149.042zm153.784-.971a.248.248 0 01-.233-.191.237.237 0 01.19-.274c1.252-.211 2.46-.444 3.605-.634a.24.24 0 01.276.19.24.24 0 01-.191.275c-1.166.211-2.375.422-3.605.634h-.042zm7.231-1.268a.247.247 0 01-.233-.19.238.238 0 01.191-.275c1.272-.232 2.481-.443 3.605-.654a.238.238 0 01.275.19.238.238 0 01-.191.274c-1.124.212-2.332.423-3.605.655-.021-.021-.021 0-.042 0zm-154.484-1.014a.26.26 0 01-.233-.148c-.042-.126.021-.274.149-.317a61.352 61.352 0 013.499-1.161c.127-.043.275.042.296.169.043.126-.042.253-.169.295-1.23.359-2.396.761-3.457 1.141-.021.021-.042.021-.085.021zm161.694-.317a.247.247 0 01-.233-.19.237.237 0 01.19-.274c1.379-.254 2.588-.486 3.605-.676a.238.238 0 01.276.19.239.239 0 01-.191.274c-1.018.19-2.248.423-3.605.676h-.042zm7.252-1.352a.247.247 0 01-.233-.19.238.238 0 01.191-.274c.254-.043.382-.085.424-.085.148-.042.297.085.297.232 0 .212-.021.212-.615.317h-.064zm-161.926-.443a.249.249 0 01-.234-.19c-.042-.127.043-.254.17-.296 1.145-.275 2.354-.549 3.584-.803.127-.021.254.064.297.19.021.127-.064.254-.191.296-1.23.254-2.439.528-3.563.803h-.063zm7.188-1.479c-.127 0-.212-.084-.233-.211a.24.24 0 01.191-.275 87.32 87.32 0 013.626-.57.24.24 0 01.276.211.24.24 0 01-.212.275c-1.23.169-2.46.38-3.627.57h-.021zm7.274-1.035c-.127 0-.233-.085-.233-.211-.022-.127.084-.254.212-.275 1.208-.148 2.438-.274 3.647-.401.127-.021.254.084.276.211.021.127-.085.253-.212.275-1.209.126-2.439.253-3.648.401h-.042zm7.295-.718a.235.235 0 01-.234-.233c0-.126.085-.253.234-.253 2.269-.169 3.668-.232 3.689-.232.128-.022.255.105.255.232s-.106.253-.233.253c-.022 0-1.421.043-3.711.233.021 0 .021 0 0 0z" fill="#7C7EFF"/><path d="M603.462 412.578s-6.956.486-12.088 12.97c-5.174 12.59 6.404 12.463 2.503 20.49-3.902 8.028 5.619 12.802 8.503 19.371 2.884 6.57 17.452 22.413 18.619 29.637 1.145 7.225 14.101-7.52 14.101-7.52s13.169-13.984 8.44-22.117c-7.782-13.393-1.039-16.308-1.293-23.786-.212-7.499-14.484-36.988-38.785-29.045z" fill="#2D185D"/><path d="M599.686 457.361s-26.931 11.703-32.063 11.47c-5.11-.232-36.643-9.569-36.643-9.569l.806 5.408s24.323 13.942 32.847 14.723c8.377.782 37.004-7.478 39.782-9.231 2.757-1.753 3.308-11.048-4.729-12.801z" fill="#FFAD89"/><path d="M597.524 470.183c2.481 1.711 5.577 3.127 9.479 4.014 14.61 3.359 20.209-8.936 22.308-17.385-1.993-1.141-3.859-1.395-4.941-1.521a43.243 43.243 0 00-3.096-.254c-1.633-1.246-4.093-6.379-4.623-14.322l-.678.19-11.515 3.148s.53 3.654.785 7.097c.19 2.704.551 4.267.042 4.901-.891.19-1.76 1.331-1.76 1.331v.021c-.17.233-3.52 5.704-6.001 12.78z" fill="#FFAD89"/><path d="M604.437 444.053s.53 3.633.785 7.097c6.531-.654 9.542-6.844 10.73-10.224l-11.515 3.127z" fill="#D19369"/><path d="M602.486 447.475s15.48-.845 14.801-10.457c-.679-9.59.869-16.16-9.055-16.033-9.903.148-11.578 3.929-12.129 7.182-.552 3.275 2.354 19.287 6.383 19.308z" fill="#FFAD89"/><path d="M633.722 501.531c1.399-7.118 5.959-35.573 1.399-44.719-1.633-3.296-8.058-3.591-15.119-3.296-2.185 1.416-10.561 6.739-13.975 6.084-.042 0-.106-.021-.191-.042-1.611-.401-1.908-2.556-.551-3.528 0 0-3.817.676-8.143 1.5-2.439.465-9.055 3.866-9.055 3.866s3.329 5.978 8.228 8.048c-.827 7.436.403 10.71 8.143 27.884 6.531 14.512-.891 27.567-.891 27.567s38.489 30.841 38.701 15.125c.169-11.83-10.349-29.384-8.546-38.489z" fill="#3797DB"/><path d="M601.659 558.397a7.12 7.12 0 01-5.153-3.126c-.191-.274-.382-.57-.594-.887-4.389-6.612-6.086-26.849-15.946-48.395-2.397-5.239-11.027-6.19-13.36-12.126 0 0-5.789-19.222 11.07-19.793 16.858-.57 45.146 53.507 45.592 59.19.424 5.471 11.133 28.834-21.609 25.137zm-66.989-.443h23.984s.891-3.802-.679-6.401c-1.399-2.302-.869-3.612.17-5.492-1.081.444-2.502.845-4.05.761-1.188-.064-2.46-.613-3.563-1.247-1.039 1.183-5.45 6.168-6.828 7.161-1.569 1.099-8.546.697-9.034 5.218z" fill="#2D185D"/><path d="M631.177 464.269s3.117 28.306-17.134 34.221c-20.252 5.935-25.998-26.025-9.649-28.328 16.371-2.302 26.783-5.893 26.783-5.893z" fill="#3B77BE"/><path d="M566.054 479.626c-1.442 10.794-7.082 44.825-17.028 61.45-3.202 5.365 8.079 8.365 8.143 8.344 1.506-.402 4.029-2.81 5.195-3.845 8.08-7.246 24.472-27.778 24.472-44.255 0-8.027.148-23.363-5.726-27.25-3.605-2.408-14.483 1.267-15.056 5.556z" fill="#2D185D"/><path d="M615.952 557.954s-.891-1.225-2.439-3.57c-1.845-2.789-3.881-8.26-6.362-15.273-2.608-7.372-5.683-16.434-9.542-25.877a257.949 257.949 0 00-3.796-8.809c-2.396-5.238-9.013-4.52-11.345-10.456 0 0-9.161-20.575 7.676-21.145 16.859-.571 48.879 55.028 50.724 60.415 2.015 5.893 11.833 30.376-24.916 24.715z" fill="#45258F"/><path d="M552.271 557.954h23.984s.89-3.802-.679-6.401c-1.399-2.302-.869-3.612.17-5.492-1.082.444-2.502.845-4.05.761-1.188-.064-2.46-.613-3.563-1.247-1.039 1.183-5.45 6.168-6.828 7.161-1.548 1.099-8.546.697-9.034 5.218zm54.88-18.843c-2.609-7.372-5.683-16.434-9.543-25.877 1.018-7.14 3.181-13.392 6.828-15.927 0 0 8.864 27.355 2.715 41.804z" fill="#2D185D"/><path d="M580.05 478.844c-1.442 10.795-3.478 45.607-13.423 62.211-3.202 5.365 8.079 8.365 8.143 8.344 1.505-.402 4.029-2.81 5.195-3.845 8.079-7.245 24.472-27.778 24.472-44.255 0-8.027-9.458-22.708-15.311-26.616-3.605-2.387-8.503-.106-9.076 4.161z" fill="#45258F"/><path d="M550.362 450.559s-1.23-3.105-3.456-2.915c-2.227.211-22.542 2.915-22.542 2.915s2.375.57 3.266 2.112l9.373 27.504h24.004l-10.645-29.616z" fill="#EBF3FA"/><path d="M629.311 456.812s-34.057 12.484-39.167 12.231c-3.308-.169-30.791-9.781-30.791-9.781l-2.46 4.647s26.762 17.132 34.099 17.048c14.526-.169 39.019-9.042 41.775-10.795 2.778-1.753 4.581-11.576-3.456-13.35z" fill="#FFBF94"/><path d="M559.353 459.262s-2.46-3.781-4.92-3.887c-2.46-.105-6.701 1.669-8.143 1.944-1.442.274-5.577 1.605-4.347 3.612 1.23 2.007 6.934 2.45 9.373 2.007 2.439-.444 5.577.972 5.577.972l2.46-4.648z" fill="#FFBF94"/><path d="M555.091 455.481s-3.902-1.796-5.026-2.112c-1.124-.338-.891 0-.551 1.056.339 1.056 2.353 2.07 2.353 2.387 0 .338 3.224-1.331 3.224-1.331z" fill="#FFBF94"/><path d="M599.602 441.961s1.463-.57 5.577-.253c0 0-.212 1.605-3.266 1.753-1.717.085-2.311-1.5-2.311-1.5z" fill="#fff"/><path d="M611.753 462.98s3.054 9.611 13.508 11.787c0 0 17.261-5.302 8.673-17.026 0 0-8.503-6.295-22.181 5.239z" fill="#3797DB"/><path d="M524.343 450.559s-2.248.866-.552 3.781l21.97-2.915s-.764-3.38.954-3.76l-22.372 2.894z" fill="#fff"/><path d="M532.21 457.741c.531-2.07.488-2.577-.699-3.844-.785-.845-1.973 1.246-2.587 2.492-.234-.549-.615-1.457-.743-1.499-.191-.064.255 2.788.255 2.788-.021.127-.021.232-.021.359 0 0-.955 4.204 3.202 6.485l-.785-2.323c.488-.085.848-2.345 1.378-4.458z" fill="#FFAD89"/><path d="M601.913 423.119s3.266-1.141 4.835 2.176c1.59 3.316 2.078 11.259 8.419 11.914 6.34.654 6.573-13.456 6.573-13.456l-15.862-6.232-8.376 5.26 4.411.338z" fill="#2D185D"/><path d="M601.913 423.119s-3.584.084-4.39 3.084c-.805 3 .467 8.598-1.526 8.999-1.973.401-3.775-9.316.042-12.484 3.817-3.169 5.874.401 5.874.401z" fill="#2D185D"/><path d="M321.405 371.069s3.584-1.352 3.987-2.282c.403-.929 1.59-1.33 3.011-1.985s2.269-1.817 2.481-1.669c.212.169.254.972-.318 1.584-.573.613-2.99 4.859-3.881 5.345-.933.486-5.28-.993-5.28-.993z" fill="#FFAD89"/><path d="M726.306 559.601H114.267a.704.704 0 01-.699-.697v-.232c0-.38.318-.697.699-.697h612.039c.382 0 .7.317.7.697v.232a.69.69 0 01-.7.697z" fill="#00BACD"/><path d="M366.764 548.702h-45.423a4.589 4.589 0 01-4.601-4.584v-12.337a4.589 4.589 0 014.601-4.584h45.423a4.588 4.588 0 014.601 4.584v12.337a4.588 4.588 0 01-4.601 4.584z" fill="#F1D35E"/><path d="M357.518 532.563h-34.226a.704.704 0 01-.699-.697c0-.38.318-.697.699-.697h34.226c.382 0 .7.317.7.697 0 .38-.318.697-.7.697zm-28.14 2.978h-6.086a.704.704 0 01-.699-.697c0-.38.318-.697.699-.697h6.065c.382 0 .7.317.7.697a.686.686 0 01-.679.697zm19.107 0h-16.71a.704.704 0 01-.7-.697c0-.38.318-.697.7-.697h16.71c.381 0 .7.317.7.697a.705.705 0 01-.7.697zm9.033 5.535h-34.226a.704.704 0 01-.699-.697c0-.381.318-.697.699-.697h34.226c.382 0 .7.316.7.697 0 .38-.318.697-.7.697zm-21.799 2.978h-12.427a.704.704 0 01-.699-.697c0-.38.318-.697.699-.697h12.427c.382 0 .7.317.7.697 0 .38-.318.697-.7.697zm15.12 0h-12.427a.704.704 0 01-.699-.697c0-.38.318-.697.699-.697h12.427c.382 0 .7.317.7.697 0 .38-.318.697-.7.697z" fill="#00BACD"/><path d="M361.248 475.237l-17.918 18.202-8.277-12.217 26.195-5.985z" fill="#45258F"/><path d="M334.536 475.423l.517 5.799 26.195-5.985-26.712.186zm.201 7.954l26.511-8.14-26.006 17.019-.505-8.879z" fill="#7C7EFF"/></g><path d="M282.94 223.974s.718-2.008 3.073-2.696c2.125-.631 4.077.602 4.652 2.553.689 2.266-.489 5.536-4.939 9.408-5.858-.774-8.643-2.868-9.332-5.106-.575-1.95.373-4.073 2.469-4.704 2.383-.745 4.077.545 4.077.545zm-17.198 6.139a52.142 52.142 0 005.541-1.033c.546-.143 1.551-.201 1.809-.775.144-.286.087-.602-.201-.803-.516-.344-1.292.029-1.866.172a64.244 64.244 0 01-5.599 1.09c-.374.058-.603.488-.517.832.086.373.459.545.833.517zm29.316-2.611c.804-.172 1.608-.373 2.441-.574.775-.2 1.723-.286 2.383-.717.488-.315.374-1.061-.258-1.118-.804-.086-1.665.258-2.441.459l-2.412.602c-.861.229-.574 1.549.287 1.348zm-19.266 11.387c.603-1.95 1.723-2.782 2.498-3.671a.551.551 0 00-.632-.889c-1.636.688-2.699 2.553-3.187 4.159-.258.832 1.062 1.233 1.321.401zm10.395 2.008c-.23-.832-.316-1.663-.201-2.524.086-.516.718-2.094-.287-2.094-.948-.028-1.091 1.578-1.149 2.238a7.13 7.13 0 00.259 2.696c.258.832 1.608.545 1.378-.316zm5.627-6.769c.517.229 1.062.43 1.579.66.517.229 1.063.573 1.637.315.316-.143.373-.516.258-.803-.201-.516-1.005-.689-1.493-.889-.517-.201-1.062-.431-1.579-.631-.345-.144-.775.143-.89.459-.115.401.143.745.488.889zm-15.65-13.797c-2.728-3.729-2.699-3.757-3.13-4.015-.431-.259-1.034.143-.919.659.115.517.115.431 2.986 4.331.23.316.747.287 1.005.029.316-.258.287-.688.058-1.004zm7.38-1.807c.115-.746.115-1.52.058-2.266-.058-.717-.058-1.778-.776-2.122a.55.55 0 00-.516.114c-.489.517-.144 1.434-.087 2.065.058.718.029 1.435-.028 2.123-.029.373.316.688.66.717.373.029.632-.258.689-.631zm10.597-1.865c.058-.344-.287-.573-.574-.631-.603-.086-1.206.631-1.608 1.033-.46.459-.89.947-1.264 1.463-.229.315-.086.774.23.946.345.23.718.058.948-.229 1.522-1.893 2.153-1.721 2.268-2.582z" fill="#FF62C2"/><path d="M589.422 573.232l23.111-10.888a20.002 20.002 0 0117.048 0l14.587 6.873a20.002 20.002 0 0017.048 0l14.588-6.873a20 20 0 0117.047 0l14.588 6.873a20 20 0 0017.047 0l14.588-6.873a20 20 0 0117.047 0l14.588 6.873a20 20 0 0017.047 0l14.588-6.873a20 20 0 0117.047 0l23.112 10.888m-253.081 18.587l23.111-10.888a20.002 20.002 0 0117.048 0l14.587 6.873a20.002 20.002 0 0017.048 0l14.587-6.873a20.002 20.002 0 0117.048 0l14.587 6.873a20.002 20.002 0 0017.048 0l14.587-6.873a20.002 20.002 0 0117.048 0l14.587 6.873a20.002 20.002 0 0017.048 0l14.587-6.873a20.002 20.002 0 0117.048 0l23.111 10.888m-253.08 18.587l23.111-10.888a20.002 20.002 0 0117.048 0l14.587 6.873a20.002 20.002 0 0017.048 0l14.587-6.873a20.002 20.002 0 0117.048 0l14.587 6.873a20.002 20.002 0 0017.048 0l14.587-6.873a20.002 20.002 0 0117.048 0l14.587 6.873a20.002 20.002 0 0017.048 0l14.587-6.873a20.002 20.002 0 0117.048 0l23.111 10.888m-253.08 18.588l23.111-10.888a19.995 19.995 0 0117.048 0l14.587 6.872a20.002 20.002 0 0017.048 0l14.587-6.872a19.995 19.995 0 0117.048 0l14.587 6.872a20.002 20.002 0 0017.048 0l14.587-6.872a19.995 19.995 0 0117.048 0l14.587 6.872a20.002 20.002 0 0017.048 0l14.587-6.872a19.995 19.995 0 0117.048 0l23.111 10.888m-253.08 18.586l23.111-10.888a20.002 20.002 0 0117.048 0l14.587 6.873a20.002 20.002 0 0017.048 0l14.587-6.873a20.002 20.002 0 0117.048 0l14.587 6.873a20.002 20.002 0 0017.048 0l14.587-6.873a20.002 20.002 0 0117.048 0l14.587 6.873a20.002 20.002 0 0017.048 0l14.587-6.873a20.002 20.002 0 0117.048 0l23.111 10.888m-253.08 18.587l23.111-10.888a20.002 20.002 0 0117.048 0l14.587 6.873a20.002 20.002 0 0017.048 0l14.587-6.873a20.002 20.002 0 0117.048 0l14.587 6.873a20.002 20.002 0 0017.048 0l14.587-6.873a20.002 20.002 0 0117.048 0l14.587 6.873a20.002 20.002 0 0017.048 0l14.587-6.873a20.002 20.002 0 0117.048 0l23.111 10.888m-253.08 18.587l23.111-10.888a20.002 20.002 0 0117.048 0l14.587 6.872a19.995 19.995 0 0017.048 0l14.587-6.872a20.002 20.002 0 0117.048 0l14.587 6.872a19.995 19.995 0 0017.048 0l14.587-6.872a20.002 20.002 0 0117.048 0l14.587 6.872a19.995 19.995 0 0017.048 0l14.587-6.872a20.002 20.002 0 0117.048 0l23.111 10.888m-253.08 18.587l23.111-10.888a20.002 20.002 0 0117.048 0l14.587 6.873a20.002 20.002 0 0017.048 0l14.587-6.873a20.002 20.002 0 0117.048 0l14.587 6.873a20.002 20.002 0 0017.048 0l14.587-6.873a20.002 20.002 0 0117.048 0l14.587 6.873a20.002 20.002 0 0017.048 0l14.587-6.873a20.002 20.002 0 0117.048 0l23.111 10.888m-253.08 18.587l23.111-10.888a20.002 20.002 0 0117.048 0l14.587 6.873a20.002 20.002 0 0017.048 0l14.587-6.873a20.002 20.002 0 0117.048 0l14.587 6.873a20.002 20.002 0 0017.048 0l14.587-6.873a20.002 20.002 0 0117.048 0l14.587 6.873a20.002 20.002 0 0017.048 0l14.587-6.873a20.002 20.002 0 0117.048 0l23.111 10.888m-253.08 18.587l23.111-10.888a20.002 20.002 0 0117.048 0l14.587 6.872a19.995 19.995 0 0017.048 0l14.587-6.872a20.002 20.002 0 0117.048 0l14.587 6.872a19.995 19.995 0 0017.048 0l14.587-6.872a20.002 20.002 0 0117.048 0l14.587 6.872a19.995 19.995 0 0017.048 0l14.587-6.872a20.002 20.002 0 0117.048 0l23.111 10.888" stroke="#51FEDD"/><defs><clipPath id="clip0"><path fill="#fff" transform="translate(113.568 231.206)" d="M0 0h613.438v328.395H0z"/></clipPath></defs></svg>