<svg width="53" height="42" viewBox="0 0 53 42" fill="none" xmlns="http://www.w3.org/2000/svg"><path d="M25.78 15.328s-1.066-2.98-4.561-4.003c-3.155-.936-6.053.895-6.906 3.79-1.023 3.364.725 8.218 7.332 13.967 8.696-1.15 12.83-4.258 13.854-7.58.852-2.895-.554-6.046-3.666-6.983-3.538-1.107-6.053.809-6.053.809zm25.534 9.112a77.517 77.517 0 01-8.227-1.532c-.81-.213-2.302-.298-2.686-1.15-.213-.426-.128-.894.298-1.192.768-.511 1.919.042 2.771.255 2.515.596 5.371 1.192 8.313 1.618.554.085.895.724.767 1.235-.128.554-.682.81-1.236.767zM7.791 20.566c-1.193-.256-2.387-.554-3.623-.852-1.15-.298-2.558-.426-3.538-1.065-.725-.468-.554-1.575.384-1.66 1.193-.128 2.472.383 3.623.681l3.58.894c1.28.34.853 2.3-.426 2.002zM36.394 37.47c-.895-2.895-2.557-4.13-3.708-5.45-.64-.681.042-1.703.937-1.32 2.43 1.022 4.007 3.79 4.732 6.174.384 1.235-1.577 1.832-1.96.597zm-15.431 2.982c.341-1.235.469-2.47.298-3.748-.127-.766-1.065-3.108.427-3.108 1.406-.043 1.62 2.342 1.705 3.321.128 1.32 0 2.725-.384 4.003-.384 1.235-2.387.809-2.046-.468zm-8.355-10.05c-.767.34-1.577.639-2.345.98-.767.34-1.577.851-2.43.468-.468-.213-.553-.767-.383-1.192.298-.767 1.492-1.022 2.217-1.32.767-.299 1.577-.64 2.344-.937.512-.213 1.151.213 1.322.681.17.596-.213 1.107-.725 1.32zM35.84 9.92c4.05-5.536 4.007-5.578 4.646-5.961.64-.384 1.535.212 1.364.979-.17.766-.17.639-4.433 6.43-.34.468-1.108.426-1.492.042-.469-.383-.426-1.022-.085-1.49zM24.885 7.237c-.17-1.107-.17-2.256-.086-3.364.086-1.064.086-2.64 1.151-3.15.256-.086.597 0 .768.17.724.766.213 2.129.128 3.066-.086 1.064-.043 2.129.042 3.15.043.554-.469 1.023-.98 1.065-.554.043-.938-.383-1.023-.937zM9.155 4.47c-.085-.511.427-.852.853-.937.895-.128 1.79.937 2.387 1.533a18.04 18.04 0 011.876 2.171c.34.469.127 1.15-.341 1.406-.512.34-1.066.085-1.407-.341-2.26-2.81-3.197-2.555-3.368-3.832z" fill="#FF62C2"/></svg>