<svg width="47" height="34" viewBox="0 0 47 34" fill="none" xmlns="http://www.w3.org/2000/svg"><path d="M39.82 26.954L19.659 31.34c-4.861 1.065-9.635-2-10.659-6.856L7.125 15.84C6.06 10.986 9.13 6.217 13.988 5.195L34.151.809c4.86-1.065 9.634 2.001 10.657 6.855l1.876 8.645c1.065 4.811-2.004 9.58-6.863 10.645z" fill="#F1D35E"/><path d="M9.171 19.8L.518 33.767l13.257-5.706-4.604-8.26z" fill="#F1D35E"/><path d="M18.933 15.925l3.368-.809s3.538-4.13 3.41-5.28c-.128-1.15-1.364-3.364-.767-3.832.597-.426 1.918-.98 3.154.298.895.937 1.236 4.982 1.705 5.152.299.128 2.217-.298 3.666-.639.938-.213 1.918.086 2.515.81.426.51.426 1.192.043 1.703l-.597.809.767.639c.554.468.64 1.362.17 1.916l-.51.596.51.383c.64.469.768 1.405.214 2.044l-.426.468.127.128c.47.554.47 1.32-.042 1.831l-.469.469-8.952 2.171c-.852.213-1.705.256-2.557.085l-3.283.256c-.34.043-.682-.213-.767-.553l-1.79-7.878c-.128-.298.128-.681.511-.767z" fill="#fff"/></svg>