<svg width="102" height="57" viewBox="0 0 102 57" fill="none" xmlns="http://www.w3.org/2000/svg"><path d="M.204.513L19.712 27.23l12.892-14.12L.204.513z" fill="#45258F"/><path d="M34.357 5.766l-1.753 7.343L.204.513l34.153 5.253zm-1.753 10.167L.204.513 30.286 27.23l2.318-11.297z" fill="#7C7EFF"/><path d="M52.226 47.96c-.226 0-5.937-.62-13.118-5.083-7.238-4.519-9.952-12.37-9.952-13.613 0-.508.396-.847.848-.847a.87.87 0 01.848.847c.057.847 2.375 7.964 9.104 12.144 6.842 4.237 12.327 4.858 12.383 4.858.453.057.849.452.792.96 0 .452-.396.791-.905.735zM30.91 29.208s0 .057 0 0c0 .057 0 0 0 0zm56.713 26.66c-10.121-2.033-19.734-5.761-28.725-11.07-7.35-4.407-13.288-11.072-20.808-14.743a.863.863 0 01-.396-1.186.865.865 0 011.187-.396C46.685 32.314 52.565 38.98 59.86 43.33c8.764 5.196 18.264 8.868 28.16 10.845 3.618.734 7.972 1.017 12.835.79.509 0 .905.34.905.848s-.34.904-.849.904c-4.353.17-8.99 0-13.288-.848z" fill="#62BDF3"/></svg>