<svg width="32" height="32" viewBox="0 0 32 32" fill="none" xmlns="http://www.w3.org/2000/svg"><path d="M.198 17.768c-1.023 7.877 7.204 14.137 14.536 13.669 8.1-.554 14.962-7.154 16.113-15.117C32.127 7.718 26.968.863 18.954.224 11.154-.372 6.21 6.526 8.425 13.51c1.62 5.024 6.181 6.855 8.483 5.493 1.79-1.065 1.705-3.79-.469-4.258-.852-.213-1.79.298-2.216.979-1.918-.767-3.709-4.216-2.473-7.963 1.578-4.77 7.63-5.067 11.382-2.81 4.774 2.853 5.541 8.942 3.794 13.796-1.833 5.11-6.863 9.113-12.32 9.539-6.18.425-11.637-4.301-12.148-10.476-.128-1.49-2.089-1.447-2.26-.042z" fill="#F74951"/></svg>