<svg width="55" height="48" viewBox="0 0 55 48" fill="none" xmlns="http://www.w3.org/2000/svg"><path d="M30.49 1.537c14.657 2.728 25.165 12.224 23.506 21.236-.83 4.49-4.563 8.011-9.92 10.083l3.49 14.365-10.611-12.638c-3.872.483-8.124.38-12.548-.45C9.75 31.407-.758 21.91.9 12.899 2.595 3.92 15.834-1.191 30.491 1.538z" fill="#62BDF3"/><path d="M37.197 21.323c-2.247 4.696-7.882 6.664-12.548 4.42-4.666-2.245-6.671-7.873-4.39-12.535 2.247-4.696 7.881-6.664 12.548-4.42 4.666 2.245 6.636 7.839 4.39 12.535z" fill="#3797DB"/><path d="M23.544 16.42c-1.21 2.486-.139 5.49 2.35 6.699 2.489 1.208 5.496.138 6.706-2.348l-9.056-4.351z" fill="#EFEFEF"/></svg>