<svg width="54" height="42" viewBox="0 0 54 42" fill="none" xmlns="http://www.w3.org/2000/svg"><path d="M26.49 14.915s-1.066-2.98-4.561-4.002c-3.155-.937-6.053.894-6.906 3.79-1.023 3.364.725 8.218 7.332 13.966 8.696-1.15 12.83-4.258 13.854-7.58.852-2.895-.554-6.046-3.666-6.983-3.538-1.107-6.053.81-6.053.81zm25.534 9.113a77.514 77.514 0 01-8.227-1.533c-.81-.213-2.302-.298-2.686-1.15-.213-.425-.128-.894.298-1.192.768-.51 1.919.043 2.771.256 2.515.596 5.371 1.192 8.313 1.618.554.085.895.724.767 1.235-.128.553-.682.809-1.236.766zM8.501 20.153c-1.193-.255-2.387-.553-3.623-.852-1.151-.298-2.558-.425-3.538-1.064-.725-.468-.554-1.576.384-1.66 1.193-.129 2.472.382 3.623.68l3.58.895c1.28.34.853 2.3-.426 2.001zm28.603 16.905c-.895-2.895-2.557-4.13-3.709-5.45-.639-.682.043-1.704.938-1.32 2.43 1.022 4.007 3.79 4.732 6.174.384 1.235-1.577 1.831-1.96.596zm-15.431 2.981c.34-1.235.469-2.47.298-3.747-.128-.767-1.065-3.109.427-3.109 1.406-.042 1.62 2.342 1.705 3.322.128 1.32 0 2.725-.384 4.002-.384 1.235-2.387.81-2.046-.468zM13.318 29.99c-.767.34-1.577.638-2.345.979-.767.34-1.577.852-2.43.468-.468-.213-.553-.766-.383-1.192.298-.766 1.492-1.022 2.217-1.32.767-.298 1.577-.639 2.344-.937.512-.213 1.151.213 1.322.682.17.596-.213 1.107-.725 1.32zM36.55 9.508c4.05-5.536 4.007-5.579 4.646-5.962.64-.383 1.535.213 1.364.98-.17.766-.17.638-4.433 6.43-.34.468-1.108.425-1.492.042-.469-.383-.426-1.022-.085-1.49zM25.595 6.825c-.17-1.107-.17-2.257-.086-3.364.086-1.065.086-2.64 1.151-3.151.256-.085.597 0 .768.17.724.767.213 2.13.128 3.066-.086 1.065-.043 2.13.042 3.151.043.554-.469 1.022-.98 1.065-.554.042-.938-.383-1.023-.937zM9.865 4.057c-.085-.51.427-.852.853-.937.895-.127 1.79.937 2.387 1.533a18.04 18.04 0 011.876 2.172c.34.468.127 1.15-.341 1.405-.512.34-1.066.085-1.407-.34-2.26-2.81-3.197-2.555-3.368-3.833z" fill="#FFE479"/></svg>