<svg width="63" height="63" viewBox="0 0 63 63" fill="none" xmlns="http://www.w3.org/2000/svg"><g clip-path="url(#clip0)"><path d="M17.506 11.306a7.948 7.948 0 1115.896 0 7.948 7.948 0 01-15.896 0zm11.768 13.362a8.602 8.602 0 011.634-4.656 10.135 10.135 0 00-2.081-.216h-6.744c-.71 0-1.405.074-2.074.213a8.621 8.621 0 011.64 5.013 8.635 8.635 0 014.173-1.07c1.226 0 2.393.255 3.452.716zm1.345.713c2.309 1.448 3.928 3.897 4.224 6.74.94.44 1.986.693 3.093.693a7.322 7.322 0 100-14.645 7.32 7.32 0 00-7.317 7.212zm-4.797 14.994a7.323 7.323 0 10-.002-14.646 7.323 7.323 0 00.002 14.646zm3.106.498h-6.213c-5.17 0-9.376 4.206-9.376 9.376v7.6l.02.118.523.163c4.934 1.54 9.22 2.056 12.748 2.056 6.89 0 10.885-1.964 11.131-2.09l.49-.248h.051V50.25c0-5.17-4.204-9.376-9.374-9.376zm12.116-7.559h-6.166a9.025 9.025 0 01-2.785 6.286c4.595 1.367 7.957 5.627 7.957 10.661v2.341c6.087-.224 9.595-1.948 9.826-2.064l.49-.249h.052v-7.6c0-5.17-4.206-9.375-9.374-9.375zm1.648-15.3c2.309 1.447 3.927 3.896 4.223 6.74.94.439 1.986.692 3.093.692a7.322 7.322 0 100-14.644c-4.007 0-7.255 3.22-7.316 7.211zm10.423 7.932H46.95a9.025 9.025 0 01-2.785 6.286c4.595 1.366 7.958 5.627 7.958 10.661v2.341c6.086-.223 9.595-1.947 9.826-2.064l.489-.248h.052V35.32c0-5.168-4.205-9.374-9.375-9.374zm-40.141 6.869a7.274 7.274 0 003.894-1.131 9.065 9.065 0 013.407-5.78c.007-.138.02-.273.02-.412a7.322 7.322 0 10-14.644 0 7.322 7.322 0 007.323 7.323zM19.55 39.6a9.033 9.033 0 01-2.784-6.252c-.228-.017-.455-.034-.688-.034H9.866C4.696 33.314.49 37.52.49 42.69v7.6l.02.118.523.164c3.957 1.237 7.49 1.806 10.559 1.983V50.26c0-5.032 3.361-9.294 7.958-10.66z" fill="#ED36A7"/></g><defs><clipPath id="clip0"><path fill="#fff" transform="translate(.49 .772)" d="M0 0h62v62H0z"/></clipPath></defs></svg>