<svg width="190" height="138" viewBox="0 0 190 138" fill="none" xmlns="http://www.w3.org/2000/svg"><path d="M0 11.451l15.176-7.15a20 20 0 0117.047 0l6.653 3.135a20 20 0 0017.047 0l6.652-3.134a20 20 0 0117.048 0l6.652 3.134a20 20 0 0017.047 0l6.652-3.134a20.001 20.001 0 0117.048 0l6.652 3.134a20.001 20.001 0 0017.048 0l6.652-3.134a19.999 19.999 0 0117.047 0l15.176 7.15M0 25.376l15.176-7.15a20 20 0 0117.047 0l6.653 3.134a20 20 0 0017.047 0l6.652-3.134a20 20 0 0117.048 0l6.652 3.134a20 20 0 0017.047 0l6.652-3.134a20 20 0 0117.048 0l6.652 3.134a20 20 0 0017.048 0l6.652-3.134a19.999 19.999 0 0117.047 0l15.176 7.15M0 39.3l15.176-7.149a20 20 0 0117.047 0l6.653 3.134a20 20 0 0017.047 0l6.652-3.134a20 20 0 0117.048 0l6.652 3.134a20 20 0 0017.047 0l6.652-3.134a20 20 0 0117.048 0l6.652 3.134a20 20 0 0017.048 0l6.652-3.134a19.999 19.999 0 0117.047 0l15.176 7.15M0 53.225l15.176-7.15a20 20 0 0117.047 0l6.653 3.134a20 20 0 0017.047 0l6.652-3.133a20 20 0 0117.048 0l6.652 3.133a20 20 0 0017.047 0l6.652-3.133a20 20 0 0117.048 0l6.652 3.133a20 20 0 0017.048 0l6.652-3.133a19.999 19.999 0 0117.047 0l15.176 7.15M0 67.15L15.176 60a20 20 0 0117.047 0l6.653 3.134a20 20 0 0017.047 0L62.575 60a20 20 0 0117.048 0l6.652 3.134a20 20 0 0017.047 0L109.974 60a20 20 0 0117.048 0l6.652 3.134a20 20 0 0017.048 0L157.374 60a19.999 19.999 0 0117.047 0l15.176 7.15M0 81.074l15.176-7.15a20 20 0 0117.047 0l6.653 3.134a20 20 0 0017.047 0l6.652-3.133a20 20 0 0117.048 0l6.652 3.133a20 20 0 0017.047 0l6.652-3.133a20 20 0 0117.048 0l6.652 3.133a20 20 0 0017.048 0l6.652-3.133a19.999 19.999 0 0117.047 0l15.176 7.15M0 94.999l15.176-7.15a20 20 0 0117.047 0l6.653 3.134a20 20 0 0017.047 0l6.652-3.134a20 20 0 0117.048 0l6.652 3.134a20 20 0 0017.047 0l6.652-3.134a20 20 0 0117.048 0l6.652 3.134a20 20 0 0017.048 0l6.652-3.134a19.999 19.999 0 0117.047 0L189.597 95M0 108.923l15.176-7.149a19.999 19.999 0 0117.047 0l6.653 3.134a20 20 0 0017.047 0l6.652-3.134a19.998 19.998 0 0117.048 0l6.652 3.134a20 20 0 0017.047 0l6.652-3.134a20 20 0 0117.048 0l6.652 3.134a20.002 20.002 0 0017.048 0l6.652-3.134a19.997 19.997 0 0117.047 0l15.176 7.149M0 122.848l15.176-7.15a20 20 0 0117.047 0l6.653 3.134a20 20 0 0017.047 0l6.652-3.134a20 20 0 0117.048 0l6.652 3.134a20 20 0 0017.047 0l6.652-3.134a20.002 20.002 0 0117.048 0l6.652 3.134a20.002 20.002 0 0017.048 0l6.652-3.134a20 20 0 0117.047 0l15.176 7.15M0 136.772l15.176-7.149a20 20 0 0117.047 0l6.653 3.134a20 20 0 0017.047 0l6.652-3.134a20 20 0 0117.048 0l6.652 3.134a20 20 0 0017.047 0l6.652-3.134a20.002 20.002 0 0117.048 0l6.652 3.134a20.002 20.002 0 0017.048 0l6.652-3.134a20 20 0 0117.047 0l15.176 7.149" stroke="#0369C7"/></svg>