<?xml version="1.0" encoding="utf-8"?><svg xmlns="http://www.w3.org/2000/svg" xmlns:xlink="http://www.w3.org/1999/xlink"><symbol viewBox="0 0 320 512" id="angle-down" xmlns="http://www.w3.org/2000/svg"><path fill="currentColor" d="M143 352.3L7 216.3c-9.4-9.4-9.4-24.6 0-33.9l22.6-22.6c9.4-9.4 24.6-9.4 33.9 0l96.4 96.4 96.4-96.4c9.4-9.4 24.6-9.4 33.9 0l22.6 22.6c9.4 9.4 9.4 24.6 0 33.9l-136 136c-9.2 9.4-24.4 9.4-33.8 0z"/></symbol><symbol class="svg-inline--fa fa-angle-left fa-w-8" viewBox="0 0 256 512" id="angle-left" xmlns="http://www.w3.org/2000/svg"><path fill="currentColor" d="M31.7 239l136-136c9.4-9.4 24.6-9.4 33.9 0l22.6 22.6c9.4 9.4 9.4 24.6 0 33.9L127.9 256l96.4 96.4c9.4 9.4 9.4 24.6 0 33.9L201.7 409c-9.4 9.4-24.6 9.4-33.9 0l-136-136c-9.5-9.4-9.5-24.6-.1-34z"/></symbol><symbol viewBox="0 0 256 512" id="angle-right" xmlns="http://www.w3.org/2000/svg"><path fill="currentColor" d="M224.3 273l-136 136c-9.4 9.4-24.6 9.4-33.9 0l-22.6-22.6c-9.4-9.4-9.4-24.6 0-33.9l96.4-96.4-96.4-96.4c-9.4-9.4-9.4-24.6 0-33.9L54.3 103c9.4-9.4 24.6-9.4 33.9 0l136 136c9.5 9.4 9.5 24.6.1 34z"/></symbol><symbol class="svg-inline--fa fa-angle-up fa-w-10" viewBox="0 0 320 512" id="angle-up" xmlns="http://www.w3.org/2000/svg"><path fill="currentColor" d="M177 159.7l136 136c9.4 9.4 9.4 24.6 0 33.9l-22.6 22.6c-9.4 9.4-24.6 9.4-33.9 0L160 255.9l-96.4 96.4c-9.4 9.4-24.6 9.4-33.9 0L7 329.7c-9.4-9.4-9.4-24.6 0-33.9l136-136c9.4-9.5 24.6-9.5 34-.1z"/></symbol><symbol viewBox="0 0 19 18" id="arrow-right" xmlns="http://www.w3.org/2000/svg"><path d="M8.055 1.377L8.922.51a.934.934 0 011.325 0L17.84 8.1a.934.934 0 010 1.324l-7.593 7.594a.934.934 0 01-1.325 0l-.867-.867a.939.939 0 01.016-1.34l4.707-4.485H1.551a.935.935 0 01-.937-.937v-1.25c0-.52.418-.937.937-.937h11.227L8.071 2.717a.932.932 0 01-.016-1.34z"/></symbol><symbol fill="none" viewBox="0 0 69 69" id="book" xmlns="http://www.w3.org/2000/svg"><g clip-path="url(#afclip0)" fill="#00AFC1"><path d="M10.894 8.797h-.006c-.643 0-1.248.251-1.705.707a2.423 2.423 0 00-.716 1.727v36.487a2.442 2.442 0 002.436 2.433c5.664.014 15.154 1.194 21.7 8.045V20.01c0-.453-.116-.88-.334-1.232-5.373-8.653-15.698-9.967-21.375-9.98zm49.62 38.921V11.23c0-.653-.255-1.266-.717-1.727a2.399 2.399 0 00-1.704-.706h-.006c-5.677.014-16.002 1.328-21.375 9.981a2.332 2.332 0 00-.334 1.232v38.185c6.546-6.85 16.036-8.03 21.7-8.044a2.441 2.441 0 002.436-2.433z"/><path d="M66.056 17.212h-1.764v30.506c0 3.417-2.784 6.202-6.205 6.211-4.804.011-12.726.95-18.336 6.26 9.703-2.375 19.931-.83 25.76.498a2.428 2.428 0 002.064-.47 2.42 2.42 0 00.914-1.901V19.645a2.436 2.436 0 00-2.433-2.433zM4.687 47.718V17.212H2.923A2.436 2.436 0 00.49 19.645v38.67c0 .744.334 1.437.915 1.9a2.426 2.426 0 002.063.47c5.83-1.328 16.058-2.872 25.76-.496-5.61-5.31-13.531-6.249-18.336-6.26-3.42-.009-6.205-2.794-6.205-6.21z"/></g><defs><clipPath id="afclip0"><path fill="#fff" transform="translate(.49 .772)" d="M0 0h68v68H0z"/></clipPath></defs></symbol><symbol class="svg-inline--fa fa-caret-down fa-w-10" viewBox="0 0 320 512" id="caret-down" xmlns="http://www.w3.org/2000/svg"><path fill="currentColor" d="M31.3 192h257.3c17.8 0 26.7 21.5 14.1 34.1L174.1 354.8c-7.8 7.8-20.5 7.8-28.3 0L17.2 226.1C4.6 213.5 13.5 192 31.3 192z"/></symbol><symbol class="svg-inline--fa fa-caret-left fa-w-6" viewBox="0 0 192 512" id="caret-left" xmlns="http://www.w3.org/2000/svg"><path fill="currentColor" d="M192 127.338v257.324c0 17.818-21.543 26.741-34.142 14.142L29.196 270.142c-7.81-7.81-7.81-20.474 0-28.284l128.662-128.662c12.599-12.6 34.142-3.676 34.142 14.142z"/></symbol><symbol class="svg-inline--fa fa-caret-right fa-w-6" viewBox="0 0 192 512" id="caret-right" xmlns="http://www.w3.org/2000/svg"><path fill="currentColor" d="M0 384.662V127.338c0-17.818 21.543-26.741 34.142-14.142l128.662 128.662c7.81 7.81 7.81 20.474 0 28.284L34.142 398.804C21.543 411.404 0 402.48 0 384.662z"/></symbol><symbol class="svg-inline--fa fa-caret-up fa-w-10" viewBox="0 0 320 512" id="caret-up" xmlns="http://www.w3.org/2000/svg"><path fill="currentColor" d="M288.662 352H31.338c-17.818 0-26.741-21.543-14.142-34.142l128.662-128.662c7.81-7.81 20.474-7.81 28.284 0l128.662 128.662c12.6 12.599 3.676 34.142-14.142 34.142z"/></symbol><symbol viewBox="0 0 308 348" id="cell" xmlns="http://www.w3.org/2000/svg"><path d="M143.828 2.772a20 20 0 0119.998 0l133.266 76.932a19.999 19.999 0 0110.001 17.321v153.86a20 20 0 01-10.001 17.321l-133.266 76.932a20 20 0 01-19.998 0L10.561 268.206A20.001 20.001 0 01.56 250.885V97.025a20 20 0 0110.001-17.32L143.828 2.771z"/></symbol><symbol class="svg-inline--fa fa-check fa-w-16" viewBox="0 0 512 512" id="check-solid" xmlns="http://www.w3.org/2000/svg"><path fill="currentColor" d="M173.898 439.404l-166.4-166.4c-9.997-9.997-9.997-26.206 0-36.204l36.203-36.204c9.997-9.998 26.207-9.998 36.204 0L192 312.69 432.095 72.596c9.997-9.997 26.207-9.997 36.204 0l36.203 36.204c9.997 9.997 9.997 26.206 0 36.204l-294.4 294.401c-9.998 9.997-26.207 9.997-36.204-.001z"/></symbol><symbol fill="none" viewBox="0 0 69 69" id="communities" xmlns="http://www.w3.org/2000/svg"><path d="M56.803 47.522a9.518 9.518 0 00-5.964 2.095l-6.617-6.616a12.692 12.692 0 002.99-7.636l13.008-.487a3.2 3.2 0 10-.069-2.125l-13.011.481a12.737 12.737 0 00-5.596-9.086l3.068-5.58a5.334 5.334 0 10-1.861-1.023l-3.07 5.583a12.703 12.703 0 00-13.42 1.913l-6.615-6.618a9.575 9.575 0 10-1.503 1.503l6.616 6.617a12.691 12.691 0 00-3.018 8.229c.003.763.074 1.524.212 2.275l-11.408 3.072a4.221 4.221 0 10.57 2.09v-.042l11.4-3.069a12.768 12.768 0 005.353 6.552l-3.2 6.4a6.41 6.41 0 101.898.956l3.2-6.4a12.706 12.706 0 0012.962-2.103l6.617 6.617a9.562 9.562 0 107.458-3.598zm-39.312-29.75H6.866a5.312 5.312 0 015.312-5.312 3.188 3.188 0 110-6.376 3.188 3.188 0 010 6.376 5.313 5.313 0 015.313 5.312zm17 8.5a4.25 4.25 0 110 8.5 4.25 4.25 0 010-8.5zM28.116 42.21a6.375 6.375 0 1112.75 0h-12.75zM51.49 62.397a5.313 5.313 0 015.312-5.313 3.187 3.187 0 110-6.374 3.187 3.187 0 010 6.374 5.312 5.312 0 015.313 5.313H51.49z" fill="#4E65E1"/></symbol><symbol class="svg-inline--fa fa-envelope fa-w-16" viewBox="0 0 512 512" id="envelope" xmlns="http://www.w3.org/2000/svg"><path fill="currentColor" d="M502.3 190.8c3.9-3.1 9.7-.2 9.7 4.7V400c0 26.5-21.5 48-48 48H48c-26.5 0-48-21.5-48-48V195.6c0-5 5.7-7.8 9.7-4.7 22.4 17.4 52.1 39.5 154.1 113.6 21.1 15.4 56.7 47.8 92.2 47.6 35.7.3 72-32.8 92.3-47.6 102-74.1 131.6-96.3 154-113.7zM256 320c23.2.4 56.6-29.2 73.4-41.4 132.7-96.3 142.8-104.7 173.4-128.7 5.8-4.5 9.2-11.5 9.2-18.9v-19c0-26.5-21.5-48-48-48H48C21.5 64 0 85.5 0 112v19c0 7.4 3.4 14.3 9.2 18.9 30.6 23.9 40.7 32.4 173.4 128.7 16.8 12.2 50.2 41.8 73.4 41.4z"/></symbol><symbol class="svg-inline--fa fa-facebook-f fa-w-10" viewBox="0 0 320 512" id="facebook" xmlns="http://www.w3.org/2000/svg"><path fill="currentColor" d="M279.14 288l14.22-92.66h-88.91v-60.13c0-25.35 12.42-50.06 52.24-50.06h40.42V6.26S260.43 0 225.36 0c-73.22 0-121.08 44.38-121.08 124.72v70.62H22.89V288h81.39v224h100.17V288z"/></symbol><symbol viewBox="0 0 16 17" id="globe" xmlns="http://www.w3.org/2000/svg"><path d="M10.5 5.5C10.062 2.719 8.969.75 7.75.75 6.5.75 5.437 2.719 4.969 5.5H10.5zm-5.75 3c0 .719.031 1.375.094 2h5.781c.063-.625.094-1.281.094-2 0-.688-.031-1.344-.094-2H4.844a20.923 20.923 0 00-.094 2zm10.125-3a7.715 7.715 0 00-4.938-4.406C10.72 2.156 11.22 3.75 11.5 5.5h3.375zM5.531 1.094A7.715 7.715 0 00.594 5.5h3.375c.281-1.75.781-3.344 1.562-4.406zM15.22 6.5h-3.594c.063.656.125 1.344.125 2 0 .688-.063 1.344-.125 2h3.594a8.16 8.16 0 00.25-2c0-.688-.094-1.344-.25-2zm-11.47 2c0-.656.031-1.344.094-2H.25a8.55 8.55 0 00-.25 2c0 .719.094 1.375.25 2h3.594a20.923 20.923 0 01-.094-2zm1.219 3c.468 2.813 1.531 4.75 2.781 4.75 1.219 0 2.313-1.938 2.75-4.75H4.969zm4.968 4.438a7.68 7.68 0 004.938-4.438H11.5c-.25 1.781-.781 3.375-1.563 4.438zM.595 11.5a7.68 7.68 0 004.937 4.438C4.75 14.874 4.25 13.28 3.97 11.5H.594z"/></symbol><symbol viewBox="0 0 162 180" id="hex-rounded" xmlns="http://www.w3.org/2000/svg"><path d="M70.98 3.34a20 20 0 0119.998 0l60.272 34.793a20.001 20.001 0 0110.001 17.321v69.583a20.001 20.001 0 01-10.001 17.321l-60.272 34.794a20.004 20.004 0 01-19.998 0l-60.272-34.794a20 20 0 01-10-17.321V55.454a20 20 0 0110-17.321L70.98 3.339z"/></symbol><symbol fill="none" viewBox="0 0 19 18" id="info" xmlns="http://www.w3.org/2000/svg"><path d="M9.5.157A8.72 8.72 0 00.781 8.875a8.718 8.718 0 008.719 8.72 8.718 8.718 0 008.719-8.72A8.72 8.72 0 009.5.157zm0 3.867a1.477 1.477 0 110 2.953 1.477 1.477 0 010-2.953zm1.969 8.93a.422.422 0 01-.422.421H7.953a.422.422 0 01-.422-.421v-.844c0-.233.19-.422.422-.422h.422v-2.25h-.422a.422.422 0 01-.422-.422v-.844c0-.233.19-.422.422-.422h2.25c.233 0 .422.19.422.422v3.516h.422c.233 0 .422.189.422.422v.844z" fill="currentcolor"/></symbol><symbol viewBox="0 0 169.063 169.063" id="instagram" xmlns="http://www.w3.org/2000/svg"><path d="M122.406 0H46.654C20.929 0 0 20.93 0 46.655v75.752c0 25.726 20.929 46.655 46.654 46.655h75.752c25.727 0 46.656-20.93 46.656-46.655V46.655C169.063 20.93 148.133 0 122.406 0zm31.657 122.407c0 17.455-14.201 31.655-31.656 31.655H46.654C29.2 154.063 15 139.862 15 122.407V46.655C15 29.201 29.2 15 46.654 15h75.752c17.455 0 31.656 14.201 31.656 31.655v75.752z"/><path d="M84.531 40.97c-24.021 0-43.563 19.542-43.563 43.563 0 24.02 19.542 43.561 43.563 43.561s43.563-19.541 43.563-43.561c0-24.021-19.542-43.563-43.563-43.563zm0 72.123c-15.749 0-28.563-12.812-28.563-28.561 0-15.75 12.813-28.563 28.563-28.563s28.563 12.813 28.563 28.563c0 15.749-12.814 28.561-28.563 28.561zm45.39-84.842c-2.89 0-5.729 1.17-7.77 3.22a11.053 11.053 0 00-3.23 7.78c0 2.891 1.18 5.73 3.23 7.78 2.04 2.04 4.88 3.22 7.77 3.22 2.9 0 5.73-1.18 7.78-3.22 2.05-2.05 3.22-4.89 3.22-7.78 0-2.9-1.17-5.74-3.22-7.78-2.04-2.05-4.88-3.22-7.78-3.22z"/></symbol><symbol viewBox="0 0 448 512" id="linkedin" xmlns="http://www.w3.org/2000/svg"><path d="M100.28 448H7.4V148.9h92.88zM53.79 108.1C24.09 108.1 0 83.5 0 53.8a53.79 53.79 0 01107.58 0c0 29.7-24.1 54.3-53.79 54.3zM447.9 448h-92.68V302.4c0-34.7-.7-79.2-48.29-79.2-48.29 0-55.69 37.7-55.69 76.7V448h-92.78V148.9h89.08v40.8h1.3c12.4-23.5 42.69-48.3 87.88-48.3 94 0 111.28 61.9 111.28 142.3V448z"/></symbol><symbol class="svg-inline--fa fa-pinterest-p fa-w-12" viewBox="0 0 384 512" id="pinterest" xmlns="http://www.w3.org/2000/svg"><path fill="currentColor" d="M204 6.5C101.4 6.5 0 74.9 0 185.6 0 256 39.6 296 63.6 296c9.9 0 15.6-27.6 15.6-35.4 0-9.3-23.7-29.1-23.7-67.8 0-80.4 61.2-137.4 140.4-137.4 68.1 0 118.5 38.7 118.5 109.8 0 53.1-21.3 152.7-90.3 152.7-24.9 0-46.2-18-46.2-43.8 0-37.8 26.4-74.4 26.4-113.4 0-66.2-93.9-54.2-93.9 25.8 0 16.8 2.1 35.4 9.6 50.7-13.8 59.4-42 147.9-42 209.1 0 18.9 2.7 37.5 4.5 56.4 3.4 3.8 1.7 3.4 6.9 1.5 50.4-69 48.6-82.5 71.4-172.8 12.3 23.4 44.1 36 69.3 36 106.2 0 153.9-103.5 153.9-196.8C384 71.3 298.2 6.5 204 6.5z"/></symbol><symbol fill="none" viewBox="0 0 53 42" id="s-markethouse" xmlns="http://www.w3.org/2000/svg"><path d="M25.78 15.328s-1.066-2.98-4.561-4.003c-3.155-.936-6.053.895-6.906 3.79-1.023 3.364.725 8.218 7.332 13.967 8.696-1.15 12.83-4.258 13.854-7.58.852-2.895-.554-6.046-3.666-6.983-3.538-1.107-6.053.809-6.053.809zm25.534 9.112a77.517 77.517 0 01-8.227-1.532c-.81-.213-2.302-.298-2.686-1.15-.213-.426-.128-.894.298-1.192.768-.511 1.919.042 2.771.255 2.515.596 5.371 1.192 8.313 1.618.554.085.895.724.767 1.235-.128.554-.682.81-1.236.767zM7.791 20.566c-1.193-.256-2.387-.554-3.623-.852-1.15-.298-2.558-.426-3.538-1.065-.725-.468-.554-1.575.384-1.66 1.193-.128 2.472.383 3.623.681l3.58.894c1.28.34.853 2.3-.426 2.002zM36.394 37.47c-.895-2.895-2.557-4.13-3.708-5.45-.64-.681.042-1.703.937-1.32 2.43 1.022 4.007 3.79 4.732 6.174.384 1.235-1.577 1.832-1.96.597zm-15.431 2.982c.341-1.235.469-2.47.298-3.748-.127-.766-1.065-3.108.427-3.108 1.406-.043 1.62 2.342 1.705 3.321.128 1.32 0 2.725-.384 4.003-.384 1.235-2.387.809-2.046-.468zm-8.355-10.05c-.767.34-1.577.639-2.345.98-.767.34-1.577.851-2.43.468-.468-.213-.553-.767-.383-1.192.298-.767 1.492-1.022 2.217-1.32.767-.299 1.577-.64 2.344-.937.512-.213 1.151.213 1.322.681.17.596-.213 1.107-.725 1.32zM35.84 9.92c4.05-5.536 4.007-5.578 4.646-5.961.64-.384 1.535.212 1.364.979-.17.766-.17.639-4.433 6.43-.34.468-1.108.426-1.492.042-.469-.383-.426-1.022-.085-1.49zM24.885 7.237c-.17-1.107-.17-2.256-.086-3.364.086-1.064.086-2.64 1.151-3.15.256-.086.597 0 .768.17.724.766.213 2.129.128 3.066-.086 1.064-.043 2.129.042 3.15.043.554-.469 1.023-.98 1.065-.554.043-.938-.383-1.023-.937zM9.155 4.47c-.085-.511.427-.852.853-.937.895-.128 1.79.937 2.387 1.533a18.04 18.04 0 011.876 2.171c.34.469.127 1.15-.341 1.406-.512.34-1.066.085-1.407-.341-2.26-2.81-3.197-2.555-3.368-3.832z" fill="#FF62C2"/></symbol><symbol fill="none" viewBox="0 0 47 34" id="s-newshetlander" xmlns="http://www.w3.org/2000/svg"><path d="M39.82 26.954L19.659 31.34c-4.861 1.065-9.635-2-10.659-6.856L7.125 15.84C6.06 10.986 9.13 6.217 13.988 5.195L34.151.809c4.86-1.065 9.634 2.001 10.657 6.855l1.876 8.645c1.065 4.811-2.004 9.58-6.863 10.645z" fill="#F1D35E"/><path d="M9.171 19.8L.518 33.767l13.257-5.706-4.604-8.26z" fill="#F1D35E"/><path d="M18.933 15.925l3.368-.809s3.538-4.13 3.41-5.28c-.128-1.15-1.364-3.364-.767-3.832.597-.426 1.918-.98 3.154.298.895.937 1.236 4.982 1.705 5.152.299.128 2.217-.298 3.666-.639.938-.213 1.918.086 2.515.81.426.51.426 1.192.043 1.703l-.597.809.767.639c.554.468.64 1.362.17 1.916l-.51.596.51.383c.64.469.768 1.405.214 2.044l-.426.468.127.128c.47.554.47 1.32-.042 1.831l-.469.469-8.952 2.171c-.852.213-1.705.256-2.557.085l-3.283.256c-.34.043-.682-.213-.767-.553l-1.79-7.878c-.128-.298.128-.681.511-.767z" fill="#fff"/></symbol><symbol fill="none" viewBox="0 0 102 57" id="s-plane" xmlns="http://www.w3.org/2000/svg"><path d="M.204.513L19.712 27.23l12.892-14.12L.204.513z" fill="#45258F"/><path d="M34.357 5.766l-1.753 7.343L.204.513l34.153 5.253zm-1.753 10.167L.204.513 30.286 27.23l2.318-11.297z" fill="#7C7EFF"/><path d="M52.226 47.96c-.226 0-5.937-.62-13.118-5.083-7.238-4.519-9.952-12.37-9.952-13.613 0-.508.396-.847.848-.847a.87.87 0 01.848.847c.057.847 2.375 7.964 9.104 12.144 6.842 4.237 12.327 4.858 12.383 4.858.453.057.849.452.792.96 0 .452-.396.791-.905.735zM30.91 29.208s0 .057 0 0c0 .057 0 0 0 0zm56.713 26.66c-10.121-2.033-19.734-5.761-28.725-11.07-7.35-4.407-13.288-11.072-20.808-14.743a.863.863 0 01-.396-1.186.865.865 0 011.187-.396C46.685 32.314 52.565 38.98 59.86 43.33c8.764 5.196 18.264 8.868 28.16 10.845 3.618.734 7.972 1.017 12.835.79.509 0 .905.34.905.848s-.34.904-.849.904c-4.353.17-8.99 0-13.288-.848z" fill="#62BDF3"/></symbol><symbol fill="none" viewBox="0 0 32 32" id="s-spin" xmlns="http://www.w3.org/2000/svg"><path d="M.198 17.768c-1.023 7.877 7.204 14.137 14.536 13.669 8.1-.554 14.962-7.154 16.113-15.117C32.127 7.718 26.968.863 18.954.224 11.154-.372 6.21 6.526 8.425 13.51c1.62 5.024 6.181 6.855 8.483 5.493 1.79-1.065 1.705-3.79-.469-4.258-.852-.213-1.79.298-2.216.979-1.918-.767-3.709-4.216-2.473-7.963 1.578-4.77 7.63-5.067 11.382-2.81 4.774 2.853 5.541 8.942 3.794 13.796-1.833 5.11-6.863 9.113-12.32 9.539-6.18.425-11.637-4.301-12.148-10.476-.128-1.49-2.089-1.447-2.26-.042z" fill="#F74951"/></symbol><symbol fill="none" viewBox="0 0 26 26" id="s-star" xmlns="http://www.w3.org/2000/svg"><path d="M7.002 24.85l-.042-7.58-6.267-4.257c-.724-.469-.554-1.576.256-1.831l7.204-2.385 2.089-7.282c.256-.809 1.321-1.021 1.833-.34l4.518 6.09 7.588-.256c.853-.043 1.364.936.895 1.66l-4.39 6.175 2.6 7.11c.298.81-.469 1.619-1.279 1.363l-7.204-2.299-5.968 4.642c-.852.51-1.833.042-1.833-.81z" fill="#F74951"/></symbol><symbol fill="none" viewBox="0 0 55 48" id="s-strategic" xmlns="http://www.w3.org/2000/svg"><path d="M30.49 1.537c14.657 2.728 25.165 12.224 23.506 21.236-.83 4.49-4.563 8.011-9.92 10.083l3.49 14.365-10.611-12.638c-3.872.483-8.124.38-12.548-.45C9.75 31.407-.758 21.91.9 12.899 2.595 3.92 15.834-1.191 30.491 1.538z" fill="#62BDF3"/><path d="M37.197 21.323c-2.247 4.696-7.882 6.664-12.548 4.42-4.666-2.245-6.671-7.873-4.39-12.535 2.247-4.696 7.881-6.664 12.548-4.42 4.666 2.245 6.636 7.839 4.39 12.535z" fill="#3797DB"/><path d="M23.544 16.42c-1.21 2.486-.139 5.49 2.35 6.699 2.489 1.208 5.496.138 6.706-2.348l-9.056-4.351z" fill="#EFEFEF"/></symbol><symbol viewBox="0 0 54 42" id="s-sun" xmlns="http://www.w3.org/2000/svg"><path d="M26.49 14.915s-1.066-2.98-4.561-4.002c-3.155-.937-6.053.894-6.906 3.79-1.023 3.364.725 8.218 7.332 13.966 8.696-1.15 12.83-4.258 13.854-7.58.852-2.895-.554-6.046-3.666-6.983-3.538-1.107-6.053.81-6.053.81zm25.534 9.113a77.514 77.514 0 01-8.227-1.533c-.81-.213-2.302-.298-2.686-1.15-.213-.425-.128-.894.298-1.192.768-.51 1.919.043 2.771.256 2.515.596 5.371 1.192 8.313 1.618.554.085.895.724.767 1.235-.128.553-.682.809-1.236.766zM8.501 20.153c-1.193-.255-2.387-.553-3.623-.852-1.151-.298-2.558-.425-3.538-1.064-.725-.468-.554-1.576.384-1.66 1.193-.129 2.472.382 3.623.68l3.58.895c1.28.34.853 2.3-.426 2.001zm28.603 16.905c-.895-2.895-2.557-4.13-3.709-5.45-.639-.682.043-1.704.938-1.32 2.43 1.022 4.007 3.79 4.732 6.174.384 1.235-1.577 1.831-1.96.596zm-15.431 2.981c.34-1.235.469-2.47.298-3.747-.128-.767-1.065-3.109.427-3.109 1.406-.042 1.62 2.342 1.705 3.322.128 1.32 0 2.725-.384 4.002-.384 1.235-2.387.81-2.046-.468zM13.318 29.99c-.767.34-1.577.638-2.345.979-.767.34-1.577.852-2.43.468-.468-.213-.553-.766-.383-1.192.298-.766 1.492-1.022 2.217-1.32.767-.298 1.577-.639 2.344-.937.512-.213 1.151.213 1.322.682.17.596-.213 1.107-.725 1.32zM36.55 9.508c4.05-5.536 4.007-5.579 4.646-5.962.64-.383 1.535.213 1.364.98-.17.766-.17.638-4.433 6.43-.34.468-1.108.425-1.492.042-.469-.383-.426-1.022-.085-1.49zM25.595 6.825c-.17-1.107-.17-2.257-.086-3.364.086-1.065.086-2.64 1.151-3.151.256-.085.597 0 .768.17.724.767.213 2.13.128 3.066-.086 1.065-.043 2.13.042 3.151.043.554-.469 1.022-.98 1.065-.554.042-.938-.383-1.023-.937zM9.865 4.057c-.085-.51.427-.852.853-.937.895-.127 1.79.937 2.387 1.533a18.04 18.04 0 011.876 2.172c.34.468.127 1.15-.341 1.405-.512.34-1.066.085-1.407-.34-2.26-2.81-3.197-2.555-3.368-3.833z" fill="currentColor"/></symbol><symbol fill="none" viewBox="0 0 34 15" id="s-zigzag" xmlns="http://www.w3.org/2000/svg"><path d="M31.9 2.334L22.522.204l-2.515 6.643L10.67 5.06l-3.367 6.09-7.204-.47-.043 2.896 9.634.597 3.197-5.75 9.719 1.874 2.472-6.557 8.483 1.959L31.9 2.334z" fill="#F74951"/></symbol><symbol viewBox="0 0 22 23" id="search" xmlns="http://www.w3.org/2000/svg"><path d="M15.719 13.953h-.988l-.35-.337a8.089 8.089 0 001.963-5.288A8.125 8.125 0 008.219.203a8.125 8.125 0 100 16.25 8.089 8.089 0 005.287-1.962l.338.35v.987l6.25 6.238 1.862-1.863-6.237-6.25zm-7.5 0a5.617 5.617 0 01-5.625-5.625 5.617 5.617 0 015.625-5.625 5.617 5.617 0 015.625 5.625 5.617 5.617 0 01-5.625 5.625z" fill="currentColor"/></symbol><symbol viewBox="0 0 14 14" id="tel" xmlns="http://www.w3.org/2000/svg"><path fill-rule="evenodd" clip-rule="evenodd" d="M13.9 10.4c-.1-.2-.3-.2-.7-.4-.3-.2-2-1.1-2.4-1.2-.3-.1-.5-.2-.8.2-.2.4-.9 1.2-1.1 1.4-.2.2-.4.3-.7.1-.2-.2-1.3-.6-2.6-1.9-1-1-1.7-2.2-1.9-2.6-.2-.4 0-.6.2-.8.2-.2.3-.4.5-.6.1-.2.1-.3.3-.6.1-.2.1-.5 0-.6-.1-.2-.8-2-1.1-2.7C3.3-.1 3 0 2.8 0h-.7c-.2 0-.6.1-.9.5C.9.8 0 1.7 0 3.5s1.2 3.6 1.4 3.8c.2.2 2.4 4.1 5.9 5.6 3.5 1.5 3.5 1 4.1.9.6-.1 2-.9 2.3-1.8.3-.7.3-1.5.2-1.6z"/></symbol><symbol class="svg-inline--fa fa-twitter fa-w-16" viewBox="0 0 512 512" id="twitter" xmlns="http://www.w3.org/2000/svg"><path fill="currentColor" d="M459.37 151.716c.325 4.548.325 9.097.325 13.645 0 138.72-105.583 298.558-298.558 298.558-59.452 0-114.68-17.219-161.137-47.106 8.447.974 16.568 1.299 25.34 1.299 49.055 0 94.213-16.568 130.274-44.832-46.132-.975-84.792-31.188-98.112-72.772 6.498.974 12.995 1.624 19.818 1.624 9.421 0 18.843-1.3 27.614-3.573-48.081-9.747-84.143-51.98-84.143-102.985v-1.299c13.969 7.797 30.214 12.67 47.431 13.319-28.264-18.843-46.781-51.005-46.781-87.391 0-19.492 5.197-37.36 14.294-52.954 51.655 63.675 129.3 105.258 216.365 109.807-1.624-7.797-2.599-15.918-2.599-24.04 0-57.828 46.782-104.934 104.934-104.934 30.213 0 57.502 12.67 76.67 33.137 23.715-4.548 46.456-13.32 66.599-25.34-7.798 24.366-24.366 44.833-46.132 57.827 21.117-2.273 41.584-8.122 60.426-16.243-14.292 20.791-32.161 39.308-52.628 54.253z"/></symbol><symbol fill="none" viewBox="0 0 63 63" id="user-group" xmlns="http://www.w3.org/2000/svg"><g clip-path="url(#bgclip0)"><path d="M17.506 11.306a7.948 7.948 0 1115.896 0 7.948 7.948 0 01-15.896 0zm11.768 13.362a8.602 8.602 0 011.634-4.656 10.135 10.135 0 00-2.081-.216h-6.744c-.71 0-1.405.074-2.074.213a8.621 8.621 0 011.64 5.013 8.635 8.635 0 014.173-1.07c1.226 0 2.393.255 3.452.716zm1.345.713c2.309 1.448 3.928 3.897 4.224 6.74.94.44 1.986.693 3.093.693a7.322 7.322 0 100-14.645 7.32 7.32 0 00-7.317 7.212zm-4.797 14.994a7.323 7.323 0 10-.002-14.646 7.323 7.323 0 00.002 14.646zm3.106.498h-6.213c-5.17 0-9.376 4.206-9.376 9.376v7.6l.02.118.523.163c4.934 1.54 9.22 2.056 12.748 2.056 6.89 0 10.885-1.964 11.131-2.09l.49-.248h.051V50.25c0-5.17-4.204-9.376-9.374-9.376zm12.116-7.559h-6.166a9.025 9.025 0 01-2.785 6.286c4.595 1.367 7.957 5.627 7.957 10.661v2.341c6.087-.224 9.595-1.948 9.826-2.064l.49-.249h.052v-7.6c0-5.17-4.206-9.375-9.374-9.375zm1.648-15.3c2.309 1.447 3.927 3.896 4.223 6.74.94.439 1.986.692 3.093.692a7.322 7.322 0 100-14.644c-4.007 0-7.255 3.22-7.316 7.211zm10.423 7.932H46.95a9.025 9.025 0 01-2.785 6.286c4.595 1.366 7.958 5.627 7.958 10.661v2.341c6.086-.223 9.595-1.947 9.826-2.064l.489-.248h.052V35.32c0-5.168-4.205-9.374-9.375-9.374zm-40.141 6.869a7.274 7.274 0 003.894-1.131 9.065 9.065 0 013.407-5.78c.007-.138.02-.273.02-.412a7.322 7.322 0 10-14.644 0 7.322 7.322 0 007.323 7.323zM19.55 39.6a9.033 9.033 0 01-2.784-6.252c-.228-.017-.455-.034-.688-.034H9.866C4.696 33.314.49 37.52.49 42.69v7.6l.02.118.523.164c3.957 1.237 7.49 1.806 10.559 1.983V50.26c0-5.032 3.361-9.294 7.958-10.66z" fill="#ED36A7"/></g><defs><clipPath id="bgclip0"><path fill="#fff" transform="translate(.49 .772)" d="M0 0h62v62H0z"/></clipPath></defs></symbol><symbol fill="none" viewBox="0 0 67 55" id="voice" xmlns="http://www.w3.org/2000/svg"><path d="M8.521 47.163c0 .416.168.816.467 1.11.3.295.705.46 1.127.46h3.586c.356 0 .7-.117.981-.332.28-.216.48-.517.565-.857l2.488-9.803H8.52v9.422zm10.625-10.85c5.253.787 16.816 4.85 24.438 11.744V6.487c-7.623 6.894-19.185 10.957-24.438 11.745v18.08zM49.428.054a4.287 4.287 0 00-3.004 1.227 4.162 4.162 0 00-1.246 2.96v46.063c0 1.11.448 2.175 1.245 2.96a4.283 4.283 0 003.005 1.227 4.282 4.282 0 003.005-1.226 4.156 4.156 0 001.245-2.961V4.24a4.16 4.16 0 00-1.246-2.96A4.287 4.287 0 0049.428.054zM8.521 18.374h9.032V36.17H8.52V18.374zm-8.5 4.711v8.375a4.681 4.681 0 001.402 3.33 4.823 4.823 0 003.38 1.38h2.125V18.375H4.803a4.823 4.823 0 00-3.38 1.381 4.681 4.681 0 00-1.402 3.33zm65.344 2.617h-5.312c-.423 0-.828.165-1.127.46a1.559 1.559 0 00-.467 1.11c0 .417.168.816.467 1.11.299.295.704.46 1.127.46h5.312c.423 0 .828-.165 1.127-.46a1.552 1.552 0 000-2.22 1.606 1.606 0 00-1.127-.46zm-7.934-8.2c.239 0 .474-.054.69-.156l4.788-2.268c.38-.18.673-.503.813-.896a1.55 1.55 0 00-.068-1.2 1.586 1.586 0 00-.909-.801 1.615 1.615 0 00-1.217.066l-4.788 2.269a1.583 1.583 0 00-.746.733 1.55 1.55 0 00.443 1.91c.282.222.633.343.995.343h-.001zm5.478 21.964l-4.788-2.268a1.615 1.615 0 00-1.213-.06 1.586 1.586 0 00-.904.8 1.55 1.55 0 00-.07 1.194c.138.392.428.714.806.897l4.788 2.268c.38.18.819.204 1.217.067.4-.138.726-.426.91-.802a1.55 1.55 0 00.067-1.2 1.578 1.578 0 00-.813-.896z" fill="#0092E9"/></symbol><symbol viewBox="0 0 576 512" id="youtube" xmlns="http://www.w3.org/2000/svg"><path d="M549.655 124.083c-6.281-23.65-24.787-42.276-48.284-48.597C458.781 64 288 64 288 64S117.22 64 74.629 75.486c-23.497 6.322-42.003 24.947-48.284 48.597-11.412 42.867-11.412 132.305-11.412 132.305s0 89.438 11.412 132.305c6.281 23.65 24.787 41.5 48.284 47.821C117.22 448 288 448 288 448s170.78 0 213.371-11.486c23.497-6.321 42.003-24.171 48.284-47.821 11.412-42.867 11.412-132.305 11.412-132.305s0-89.438-11.412-132.305zm-317.51 213.508V175.185l142.739 81.205-142.739 81.201z"/></symbol></svg>